<svg width="135" height="140" viewBox="0 0 135 140" fill="none" xmlns="http://www.w3.org/2000/svg">
<path fill-rule="evenodd" clip-rule="evenodd" d="M24.1333 19.6001C25.2496 19.5297 26.3009 19.0507 27.0864 18.2544C27.8718 17.4582 28.3365 16.4005 28.3917 15.2834C28.3312 14.0867 27.801 12.9621 26.9164 12.1539C26.0317 11.3457 24.864 10.9191 23.6667 10.9667C23.0829 10.9864 22.5096 11.1277 21.9835 11.3815C21.4574 11.6353 20.99 11.9961 20.6112 12.4408C20.2324 12.8854 19.9505 13.4042 19.7836 13.964C19.6167 14.5238 19.5683 15.1122 19.6417 15.6917C19.7313 16.8009 20.2515 17.8309 21.0909 18.5614C21.9304 19.2918 23.0224 19.6647 24.1333 19.6001Z" fill="#0385DB"/>
<path fill-rule="evenodd" clip-rule="evenodd" d="M45.6 15.2833C45.5775 14.6933 45.4388 14.1136 45.192 13.5772C44.9452 13.0408 44.5951 12.5584 44.1616 12.1575C43.7282 11.7565 43.22 11.445 42.666 11.2407C42.1121 11.0364 41.5233 10.9432 40.9333 10.9667C39.7885 11.0208 38.712 11.5275 37.9408 12.3754C37.1695 13.2232 36.7667 14.3427 36.8208 15.4875C36.875 16.6324 37.3817 17.7088 38.2295 18.4801C39.0773 19.2513 40.1968 19.6542 41.3417 19.6C42.4579 19.5297 43.5092 19.0506 44.2947 18.2544C45.0802 17.4581 45.5449 16.4005 45.6 15.2833Z" fill="#0385DB"/>
<path fill-rule="evenodd" clip-rule="evenodd" d="M62.1667 15.2833C62.1441 14.6933 62.0055 14.1136 61.7587 13.5772C61.5119 13.0408 61.1617 12.5584 60.7283 12.1575C60.2949 11.7565 59.7866 11.445 59.2327 11.2407C58.6788 11.0364 58.09 10.9432 57.5 10.9667C56.3551 11.0208 55.2787 11.5275 54.5074 12.3754C53.7362 13.2232 53.3333 14.3427 53.3875 15.4875C53.4416 16.6324 53.9484 17.7088 54.7962 18.4801C55.644 19.2513 56.7635 19.6542 57.9083 19.6C59.0246 19.5297 60.0758 19.0506 60.8613 18.2544C61.6468 17.4581 62.1115 16.4005 62.1667 15.2833Z" fill="#0385DB"/>
<path fill-rule="evenodd" clip-rule="evenodd" d="M134.442 15.6333C133.944 12.8835 132.892 10.2636 131.35 7.93332C129.021 4.86897 125.629 2.78787 121.842 2.09999C114.673 1.11383 107.425 0.820808 100.2 1.22499C91.3334 0.699991 82.1167 0.291658 73.1333 -9.0301e-06C64.15 -0.291676 55.1083 -9.0301e-06 46.0083 -9.0301e-06C38.8443 0.125083 31.6948 0.690035 24.6 1.69166C19.7999 2.40047 15.0879 3.61271 10.5417 5.30832C10.1428 5.49896 9.83087 5.8335 9.66855 6.2447C9.50624 6.65591 9.50556 7.11331 9.66667 7.52499C9.73789 7.73567 9.85138 7.92958 10.0002 8.09484C10.149 8.26011 10.33 8.39325 10.5321 8.48609C10.7341 8.57894 10.9531 8.62954 11.1754 8.6348C11.3977 8.64005 11.6188 8.59985 11.825 8.51666C16.1352 7.02625 20.5948 6.00915 25.125 5.48332C32.0871 4.86173 39.0796 4.64747 46.0667 4.84166C53.3 4.84166 60.4167 5.13332 67.5333 5.42499C78.2667 5.94999 89 6.64999 99.7917 7.52499C104.05 7.81666 111.458 7.05832 117.7 7.87499C119.268 7.89856 120.814 8.24779 122.24 8.90051C123.666 9.55323 124.941 10.4952 125.983 11.6667C127.053 13.2667 127.769 15.0764 128.083 16.975C128.68 20.1855 128.876 23.4578 128.667 26.7167C128.566 26.3253 128.341 25.9773 128.025 25.7248C127.71 25.4724 127.321 25.3291 126.917 25.3167C123.242 25.3167 119.567 25.3167 115.833 24.9083C107.142 24.3833 98.3333 23.3917 89.8167 22.75C81.3 22.1083 74.3583 21.9917 66.4833 22.05C58.6083 22.1083 51.0833 22.4583 43.15 22.8667C35.2167 23.275 27.225 24.0333 19.2917 25.375C15.5583 26.0167 11.8833 26.8917 8.26667 27.8833C8.73334 22.05 9.375 16.2167 10.3667 10.3833C10.4266 10.1379 10.436 9.88281 10.3944 9.6336C10.3528 9.38439 10.261 9.14622 10.1247 8.93352C9.98835 8.72081 9.81024 8.538 9.60116 8.39616C9.39208 8.25432 9.15638 8.15639 8.90834 8.10833C8.65874 8.04888 8.39957 8.04153 8.14701 8.08673C7.89444 8.13194 7.65391 8.22872 7.44043 8.37104C7.22694 8.51337 7.04509 8.69817 6.90622 8.91392C6.76736 9.12967 6.67446 9.37173 6.63334 9.62499C3.9761 21.1353 2.24005 32.839 1.44167 44.625C1.03334 50.4583 0.741669 56.2917 0.625002 62.125C0.508336 67.9583 0.625002 73.7917 0.625002 79.625C0.509253 85.3082 1.05741 90.9855 2.25834 96.5417C3.09806 100.9 5.5313 104.789 9.08334 107.45C10.501 108.35 12.0901 108.946 13.75 109.2C15.9603 109.437 18.1897 109.437 20.4 109.2C20.8483 109.142 21.2587 108.918 21.5502 108.573C21.8418 108.227 21.9933 107.785 21.975 107.333C21.9602 107.111 21.9016 106.894 21.8026 106.694C21.7036 106.495 21.5662 106.316 21.3981 106.17C21.2301 106.024 21.0348 105.912 20.8235 105.841C20.6121 105.771 20.3889 105.742 20.1667 105.758C18.2081 105.82 16.2494 105.644 14.3333 105.233C13.2715 105.048 12.2705 104.608 11.4167 103.95C9.07805 101.816 7.56967 98.9227 7.15834 95.7833C6.45562 90.562 6.35775 85.2771 6.86667 80.0333C6.86667 71.8667 7.275 63.6417 7.39167 55.4167C7.50834 47.1917 7.39167 39.375 8.15 31.4417C11.9969 30.5537 15.8924 29.8914 19.8167 29.4583C27.6917 28.6417 35.625 28.5833 43.15 28.525H89.0583C97.6917 28.525 106.558 29.1667 115.133 29.2833H126.508C126.89 29.2683 127.256 29.1292 127.55 28.8869C127.845 28.6447 128.053 28.3128 128.142 27.9417L126.333 103.775C126.333 106.342 126.333 108.033 124.35 108.617C122.012 109.19 119.571 109.19 117.233 108.617C116.984 108.566 116.728 108.565 116.478 108.613C116.229 108.662 115.991 108.76 115.78 108.901C115.568 109.042 115.387 109.223 115.246 109.435C115.105 109.646 115.007 109.884 114.958 110.133C114.871 110.635 114.98 111.15 115.262 111.574C115.544 111.997 115.979 112.296 116.475 112.408C118.288 113.078 120.22 113.361 122.149 113.24C124.077 113.12 125.96 112.598 127.675 111.708C128.686 110.732 129.474 109.549 129.988 108.24C130.501 106.932 130.727 105.528 130.65 104.125L134.5 27.4167C134.95 23.5006 134.931 19.5448 134.442 15.6333Z" fill="#0385DB"/>
<path fill-rule="evenodd" clip-rule="evenodd" d="M97.8083 109.667L72.2 57.6916V57.3416V56.4082C72.2329 56.1858 72.221 55.959 72.1652 55.7412C72.1094 55.5234 72.0107 55.3189 71.8749 55.1396C71.7391 54.9604 71.569 54.81 71.3744 54.6973C71.1798 54.5846 70.9647 54.5118 70.7417 54.4832C70.5192 54.4504 70.2925 54.4622 70.0746 54.518C69.8568 54.5739 69.6523 54.6726 69.4731 54.8083C69.2938 54.9441 69.1435 55.1143 69.0308 55.3089C68.9181 55.5034 68.8453 55.7185 68.8167 55.9416C67.8957 61.4063 65.914 66.638 62.9833 71.3416C60.0371 76.0709 56.046 80.0619 51.3167 83.0082C44.5313 86.3529 38.1509 90.4629 32.3 95.2582C29.5232 98.0183 27.897 101.729 27.75 105.642C27.6413 107.808 28.0021 109.972 28.8075 111.985C29.613 113.999 30.8441 115.815 32.4167 117.308C34.4924 119.305 37.0742 120.697 39.8833 121.333C42.0846 125.931 44.9547 130.177 48.4 133.933C51.0404 136.769 54.3797 138.861 58.0833 140C61.6893 140.672 65.4144 140.224 68.7583 138.717C70.2771 138.122 71.5773 137.076 72.4845 135.72C73.3917 134.365 73.8624 132.764 73.8333 131.133C73.8068 129.921 73.3038 128.769 72.4333 127.925C70.8942 126.632 69.2558 125.461 67.5333 124.425C65.9117 123.25 64.4422 121.878 63.1583 120.342C62.3976 119.399 61.7332 118.383 61.175 117.308C63.8638 116.339 66.6109 115.54 69.4 114.917L79.0833 113.517C80.8859 113.312 82.7058 113.312 84.5083 113.517C86.3289 113.711 88.1262 114.083 89.875 114.625C90.6333 114.625 92.7917 115.967 94.25 116.433C95.1721 116.822 96.1946 116.903 97.1667 116.667C97.9337 116.377 98.5605 115.804 98.9185 115.066C99.2765 114.329 99.3385 113.482 99.0917 112.7C98.625 111.883 97.8667 109.783 97.8083 109.667ZM59.6 122.792C60.8559 124.806 62.3438 126.666 64.0333 128.333C65.7833 130.025 70.7417 131.133 64.9667 133C63.0833 133.603 61.0824 133.743 59.1333 133.408C55.8027 132.448 52.8105 130.567 50.5 127.983C48.3712 125.914 46.4199 123.67 44.6667 121.275C47.1723 121.168 49.6577 120.776 52.075 120.108C53.7667 119.7 55.5167 119.117 57.2083 118.533C57.8824 120.018 58.6825 121.443 59.6 122.792ZM85.15 107.45C82.9667 107.148 80.7599 107.05 78.5583 107.158C76.8083 107.158 75 107.158 73.25 107.683L68 108.5C62.1667 109.608 56.3333 112.292 50.5 113.867C48.3204 114.505 46.0628 114.839 43.7917 114.858C41.2029 114.902 38.6892 113.988 36.7333 112.292C35.8079 111.425 35.0712 110.377 34.5694 109.212C34.0675 108.048 33.8113 106.793 33.8167 105.525C33.9702 103.814 34.4995 102.159 35.3667 100.677C36.2338 99.1945 37.4176 97.9219 38.8333 96.9499C40.2561 95.7444 41.7566 94.6337 43.325 93.6249C44.0833 95.4916 44.8417 97.4166 45.7167 99.4582C46.5917 101.5 47.2917 102.433 48.1667 103.95C49.477 106.178 50.6649 108.476 51.725 110.833C51.8741 111.322 52.2061 111.734 52.6516 111.984C53.0971 112.234 53.622 112.302 54.1167 112.175C54.6053 112.026 55.0175 111.694 55.2675 111.248C55.5174 110.803 55.5858 110.278 55.4583 109.783C55.1415 107.025 54.5353 104.307 53.65 101.675C53.2885 100.553 52.84 99.4605 52.3083 98.4082C51.7811 97.2979 51.1768 96.2259 50.5 95.1999C49.4269 93.8163 48.2573 92.5102 47 91.2916C49.6833 89.7166 52.25 88.2582 54.2917 86.8582C59.319 83.3492 63.5032 78.7665 66.5417 73.4416C68.3025 70.3285 69.6925 67.0198 70.6833 63.5832L91.3333 108.792C89.3187 108.152 87.2485 107.703 85.15 107.45Z" fill="#0385DB"/>
<path fill-rule="evenodd" clip-rule="evenodd" d="M99.0917 49.1166C97.3417 50.6332 95.5917 51.9166 93.9 53.3749L91.8 55.1832L89.9333 57.1666C88.475 58.8582 87.25 60.6082 85.675 62.1832C85.2961 62.4231 85.0279 62.8037 84.9295 63.2412C84.831 63.6788 84.9103 64.1375 85.15 64.5166C85.2631 64.7104 85.4149 64.8789 85.5959 65.0115C85.777 65.144 85.9834 65.2379 86.2023 65.2872C86.4213 65.3364 86.648 65.34 86.8684 65.2978C87.0888 65.2555 87.2981 65.1683 87.4833 65.0416C89.7899 64.2573 91.9858 63.179 94.0167 61.8332C94.8715 61.2685 95.655 60.6026 96.35 59.8499C97.0915 59.1276 97.7742 58.3473 98.3917 57.5166C99.7333 55.6499 100.842 53.6082 102.067 51.6832C102.228 51.4879 102.348 51.2628 102.422 51.0207C102.496 50.7787 102.522 50.5245 102.497 50.2726C102.473 50.0207 102.399 49.7761 102.28 49.5528C102.161 49.3294 102 49.1316 101.804 48.9707C101.609 48.8099 101.384 48.689 101.142 48.6152C100.9 48.5413 100.645 48.5158 100.394 48.5402C100.142 48.5646 99.8971 48.6383 99.6737 48.7572C99.4503 48.8762 99.2525 49.0379 99.0917 49.2332V49.1166Z" fill="#0385DB"/>
<path fill-rule="evenodd" clip-rule="evenodd" d="M120.5 99.1667C120.693 98.6948 120.691 98.1656 120.494 97.6954C120.297 97.2252 119.921 96.8522 119.45 96.6583C117.345 95.3148 115.042 94.3108 112.625 93.6833C111.609 93.4424 110.575 93.2863 109.533 93.2167C108.505 93.1293 107.47 93.1293 106.442 93.2167C104.093 93.6178 101.788 94.2429 99.5583 95.0833C99.1038 95.1418 98.6904 95.3761 98.4068 95.7361C98.1232 96.096 97.9921 96.5528 98.0417 97.0083C98.063 97.2289 98.129 97.4428 98.2356 97.6371C98.3422 97.8314 98.4873 98.0019 98.6619 98.1383C98.8365 98.2747 99.0371 98.3742 99.2513 98.4307C99.4656 98.4871 99.6892 98.4994 99.9083 98.4667C102.417 98.4667 104.808 99.2833 107.375 99.5167H111.633C113.763 99.4645 115.893 99.6208 117.992 99.9833C118.435 100.192 118.942 100.224 119.408 100.072C119.874 99.9204 120.264 99.5966 120.5 99.1667Z" fill="#0385DB"/>
<path fill-rule="evenodd" clip-rule="evenodd" d="M95.2417 75.8333C94.9202 76.0887 94.6987 76.4489 94.616 76.8511C94.5333 77.2533 94.5946 77.6718 94.7893 78.0333C94.984 78.3948 95.2995 78.6764 95.6808 78.8287C96.0621 78.981 96.4848 78.9945 96.875 78.8666C98.9167 78.2833 100.842 77.9916 102.708 77.3499C103.509 77.0997 104.289 76.7876 105.042 76.4166L107.258 75.1916C109.008 74.1416 110.525 72.9749 112.275 71.9833C112.517 71.9042 112.741 71.7778 112.934 71.6115C113.127 71.4451 113.285 71.2421 113.399 71.0142C113.513 70.7863 113.581 70.538 113.598 70.2838C113.615 70.0296 113.582 69.7745 113.5 69.5333C113.316 69.0639 112.961 68.6821 112.506 68.4654C112.051 68.2487 111.53 68.2134 111.05 68.3666C108.942 68.623 106.856 69.0324 104.808 69.5916C103.939 69.8055 103.098 70.1186 102.3 70.5249C101.462 70.8715 100.661 71.3014 99.9083 71.8083C98.3333 72.9749 97.1667 74.3749 95.2417 75.8333Z" fill="#0385DB"/>
</svg>
