<svg width="140" height="122" viewBox="0 0 140 122" fill="none" xmlns="http://www.w3.org/2000/svg">
<path d="M18.55 32.3L40.3083 33H70.175C80.15 33 90.0667 32.5917 100.042 32.4167L119.292 32.0084H129.208C129.74 32.0244 130.257 31.8322 130.65 31.4727C131.042 31.1131 131.278 30.6146 131.308 30.0834C131.316 29.8229 131.272 29.5634 131.18 29.3198C131.087 29.0762 130.948 28.8532 130.769 28.6636C130.59 28.474 130.376 28.3215 130.138 28.2148C129.9 28.1081 129.644 28.0492 129.383 28.0417L119.292 27.3417L100.042 26.7C90.0667 26.7 80.0917 26.1167 70.175 26.1167C60.2583 26.1167 50.225 26.4667 40.25 26.7584L18.6083 27.6334C16.2888 27.5622 13.9673 27.6793 11.6667 27.9834C9.85833 27.9834 8.925 31.95 11.6667 32.0084L18.55 32.3Z" fill="#0385DB"/>
<path d="M139.125 25.6499C139.384 21.0578 139.248 16.4519 138.717 11.8833C138.347 9.51192 137.361 7.27917 135.858 5.40825C134.666 4.06924 133.103 3.11493 131.367 2.66659C129.453 2.18451 127.501 1.87219 125.533 1.73325C122.442 1.44159 119.35 1.26659 116.258 1.09159H102.492C88.9 1.09159 75.3667 0.449919 61.6583 0.333252C52.5583 0.333252 43.4583 0.333252 34.4167 0.741585L16.9167 2.02492C14.9917 2.02492 12.775 2.02492 10.675 2.43325C9.13361 2.71842 7.61343 3.10821 6.125 3.59992C5.38038 3.80279 4.71694 4.23144 4.22596 4.82688C3.73498 5.42232 3.4406 6.15529 3.38333 6.92492C3.15 10.5999 2.85833 14.3333 2.625 18.5333C2.1 27.7499 1.80833 36.9666 1.28333 46.2416C0.933334 51.7833 0.291668 57.2666 0.0583344 62.8083V70.0999C0.0583344 73.4833 0.875001 99.2666 1.69167 108.25C1.8238 110.566 2.23511 112.858 2.91667 115.075C3.13949 115.768 3.56645 116.378 4.14167 116.825C5.09126 117.54 6.18657 118.038 7.35 118.283C9.28277 118.592 11.2296 118.807 13.1833 118.925L20.5333 119.333L31.5 120.092L48.7083 120.5C55.7083 120.5 62.8833 121.317 70 121.608H79.45C88.725 121.608 109.725 120.908 122.558 119.858C126.034 119.658 129.488 119.17 132.883 118.4C133.919 118.103 134.836 117.491 135.508 116.65C136.528 115.179 137.223 113.509 137.55 111.75C137.948 108.577 138.124 105.38 138.075 102.183L140 65.6083L139.125 25.6499ZM131.367 102.125V109.708C131.265 110.632 131.029 111.536 130.667 112.392C129.967 112.392 128.683 112.8 127.4 112.917C122.442 113.558 114.508 114.025 106.283 114.433C96.0167 114.9 85.3417 115.192 79.45 115.425H73.6167C65.45 115.425 57.1083 114.492 49.0583 114.55H32.025L21.2917 114.025L14 113.5H9.275L7.93333 113.208C7.93333 112.858 7.58333 112.45 7.46667 111.983C6.91549 108.446 6.54556 104.883 6.35833 101.308C5.83333 92.6166 4.9 72.6666 4.725 69.8083C4.55 66.9499 4.725 63.6249 4.725 60.5916C4.725 55.8666 5.36667 51.1999 5.54167 46.4166C5.71667 41.6333 6.24167 22.1499 6.41667 18.7083C6.59167 15.2666 6.76667 10.9499 7.05833 7.04159C7.35 7.04159 10.0917 6.16658 11.3167 6.04992C12.5417 5.93325 15.5167 6.04992 17.15 6.04992L34.3583 4.99992H61.3667C74.9 4.99992 88.4917 5.99159 102.2 6.34159C106.692 6.34159 111.242 6.34159 115.792 6.80825C118.767 6.80825 121.625 7.21658 124.717 7.56659C126.129 7.66205 127.532 7.85698 128.917 8.14992C129.815 8.28473 130.649 8.69197 131.308 9.31659C132.406 10.9387 133.013 12.8421 133.058 14.7999C133.408 18.6499 133.058 22.9083 133.058 25.8833L133.467 62.9833V67.8833L131.367 102.125Z" fill="#0385DB"/>
<path d="M20.65 12.5833C19.4625 12.1601 18.1607 12.1886 16.9929 12.6635C15.8251 13.1384 14.8729 14.0264 14.3177 15.1583C13.7626 16.2902 13.6434 17.5868 13.9829 18.8009C14.3223 20.0151 15.0967 21.0618 16.1583 21.7417C20.5917 24.1917 29.1667 17.425 20.65 12.5833Z" fill="#0385DB"/>
<path d="M39.0833 12.9917C33.775 10.4834 29.1667 17.8334 34.2417 20.9834C35.5251 21.383 36.8912 21.4371 38.2021 21.14C39.5131 20.843 40.7225 20.2055 41.7083 19.2917C42.9333 17.8917 42.8167 14.9167 39.0833 12.9917Z" fill="#0385DB"/>
<path d="M49.8167 20.1665C50.5246 20.7449 51.3587 21.1489 52.2515 21.3458C53.1443 21.5426 54.0708 21.5269 54.9564 21.2998C55.842 21.0727 56.6618 20.6407 57.3497 20.0385C58.0377 19.4363 58.5744 18.6809 58.9167 17.8331C59.0223 17.0422 58.9442 16.2375 58.6884 15.4816C58.4326 14.7257 58.006 14.039 57.4418 13.4747C56.8775 12.9104 56.1908 12.4838 55.4349 12.228C54.679 11.9723 53.8743 11.8942 53.0833 11.9998C52.1046 11.9242 51.1272 12.1631 50.2937 12.6817C49.4602 13.2003 48.8141 13.9715 48.4495 14.8829C48.0849 15.7944 48.0209 16.7985 48.2669 17.7489C48.5128 18.6992 49.0557 19.5462 49.8167 20.1665Z" fill="#0385DB"/>
<path fill-rule="evenodd" clip-rule="evenodd" d="M47.6583 58.6667C45.6167 47 44.975 47 35.35 47.5834C26.7167 48.05 25.2583 46.7667 23.6833 54.2334C23.3333 56.1 23.2167 59.1917 22.8667 61.875C22.5811 63.5284 22.8475 65.2298 23.625 66.7167C26.25 71.2667 33.075 71.15 37.7417 71.2667C46.3167 71.5 48.3583 66.8334 47.6583 58.6667ZM41.3583 62.8084C41.3583 64.5584 41.3583 64.2084 37.8583 64.675C24.9667 65.2 27.9417 65.375 28.525 51.8417C32.5974 52.4713 36.7126 52.7834 40.8333 52.775C41.4999 56.0756 41.6768 59.4563 41.3583 62.8084Z" fill="#0385DB"/>
<path fill-rule="evenodd" clip-rule="evenodd" d="M45.7333 83.2831C43.925 79.4331 39.1417 80.3665 35.35 80.5998C26.6583 81.0081 25.2583 79.7831 23.6833 87.1915C23.3333 89.0581 23.2167 92.2081 22.8667 94.8915C22.5811 96.5448 22.8475 98.2463 23.625 99.7331C26.25 104.225 33.075 104.166 37.7417 104.283C49.8167 104.575 48.9417 94.6581 45.7333 83.2831ZM41.3583 95.9998C41.3583 97.6915 41.3583 97.3415 37.8583 97.8665C25.025 98.3331 27.8833 98.5665 28.525 85.0331C32.6076 85.5464 36.7186 85.7997 40.8333 85.7915C41.519 89.1487 41.696 92.5899 41.3583 95.9998Z" fill="#0385DB"/>
<path fill-rule="evenodd" clip-rule="evenodd" d="M83.825 58.6667C81.7833 47 81.1417 47 71.5167 47.5834C62.8833 48.05 61.425 46.7667 59.85 54.2334C59.5 56.1 59.325 59.1917 58.975 61.875C58.7072 63.5348 58.9943 65.2366 59.7917 66.7167C62.3583 71.2667 69.1833 71.15 73.9083 71.2667C82.4833 71.5 84.4667 66.8334 83.825 58.6667ZM77.4667 62.8084C77.4667 64.5584 77.4667 64.2084 74.025 64.675C61.1333 65.2 64.05 65.375 64.6917 51.8417C68.7641 52.4713 72.8792 52.7834 77 52.775C77.6222 56.0814 77.7793 59.4585 77.4667 62.8084Z" fill="#0385DB"/>
<path fill-rule="evenodd" clip-rule="evenodd" d="M81.6667 83.2831C79.8583 79.4331 75.075 80.3665 71.3417 80.5998C62.65 81.0081 61.25 79.7831 59.675 87.1915C59.325 89.0581 59.15 92.2081 58.8 94.8915C58.5322 96.5512 58.8192 98.253 59.6167 99.7331C62.1833 104.225 69.0083 104.166 73.7333 104.283C85.9833 104.575 85.05 94.6581 81.6667 83.2831ZM77.4667 95.9998C77.4667 97.6915 77.4667 97.3415 74.025 97.8665C61.1333 98.3331 64.05 98.5665 64.6917 85.0331C68.7705 85.6049 72.8816 85.9166 77 85.9665C77.6237 89.2727 77.7808 92.65 77.4667 95.9998Z" fill="#0385DB"/>
<path fill-rule="evenodd" clip-rule="evenodd" d="M119.992 58.6667C117.892 47 117.25 47 107.625 47.5834C98.9917 48.05 97.5333 46.7667 95.9583 54.2334C95.55 56.1 95.4333 59.1917 95.0833 61.875C94.7977 63.5284 95.0642 65.2298 95.8417 66.7167C98.4667 71.2667 105.292 71.15 109.958 71.2667C118.592 71.5 120.633 66.8334 119.992 58.6667ZM113.633 62.8084C113.342 64.5584 113.633 64.2084 110.133 64.675C97.2417 65.2 100.217 65.375 100.8 51.8417C104.872 52.4713 108.988 52.7834 113.108 52.775C113.775 56.0756 113.952 59.4563 113.633 62.8084Z" fill="#0385DB"/>
<path fill-rule="evenodd" clip-rule="evenodd" d="M118.008 83.2831C116.2 79.4331 111.417 80.3665 107.625 80.5998C98.9333 81.0081 97.5333 79.7831 95.9583 87.1915C95.55 89.0581 95.4333 92.2081 95.0833 94.8915C94.7977 96.5448 95.0642 98.2463 95.8417 99.7331C98.4667 104.225 105.292 104.166 109.958 104.283C122.092 104.575 121.217 94.6581 118.008 83.2831ZM113.633 95.9998C113.342 97.6915 113.633 97.3415 110.133 97.8665C97.3 98.3331 100.217 98.5665 100.8 85.0331C104.879 85.6049 108.99 85.9166 113.108 85.9665C113.777 89.2668 113.953 92.6478 113.633 95.9998Z" fill="#0385DB"/>
</svg>
