<svg width="140" height="140" viewBox="0 0 140 140" fill="none" xmlns="http://www.w3.org/2000/svg">
<path fill-rule="evenodd" clip-rule="evenodd" d="M139.65 94.2083C138.501 85.3088 134.535 77.01 128.333 70.525C124.66 67.7149 120.757 65.2173 116.667 63.0583C116.212 62.8872 115.71 62.8889 115.257 63.0633C114.803 63.2377 114.429 63.5725 114.206 64.0042C113.983 64.4359 113.926 64.9344 114.047 65.4053C114.167 65.8761 114.456 66.2864 114.858 66.5583C118.585 68.6376 122.136 71.0177 125.475 73.675C128.897 77.5325 131.474 82.063 133.041 86.9754C134.608 91.8878 135.131 97.0736 134.575 102.2C129.416 102.657 124.234 102.793 119.058 102.608C119.055 97.3063 118.249 92.0354 116.667 86.975C120.167 86.975 123.258 86.975 125.825 86.6833C126.285 86.6035 126.703 86.3636 127.004 86.0061C127.305 85.6486 127.469 85.1964 127.469 84.7291C127.469 84.2619 127.305 83.8096 127.004 83.4521C126.703 83.0946 126.285 82.8548 125.825 82.775C122.85 82.775 119.117 82.1916 114.975 81.725L110.833 70.8166C110.772 70.6021 110.669 70.4018 110.53 70.2271C110.392 70.0524 110.22 69.9067 110.025 69.7984C109.631 69.5796 109.167 69.5262 108.733 69.65C108.3 69.7737 107.934 70.0645 107.715 70.4583C107.496 70.8522 107.443 71.3168 107.567 71.75L109.55 81.2C103.356 80.4626 97.1205 80.1313 90.8834 80.2083C91.5892 77.2926 92.7718 74.5136 94.3834 71.9833C96.3578 69.0923 98.8979 66.6317 101.85 64.75C103.25 64.1083 101.85 63.7 104.592 64.05C105.018 64.0546 105.432 63.9032 105.755 63.6242C106.078 63.3453 106.287 62.958 106.345 62.5352C106.402 62.1124 106.303 61.6832 106.066 61.3284C105.829 60.9735 105.471 60.7174 105.058 60.6083C85.4 57.8666 71.1667 70 64.1667 88.8416C61.2328 96.44 60.8767 104.792 63.1533 112.612C65.4298 120.433 70.2129 127.289 76.7667 132.125C83.1437 136.544 90.6618 139.025 98.4163 139.271C106.171 139.517 113.831 137.516 120.475 133.51C127.119 129.504 132.463 123.663 135.865 116.69C139.267 109.718 140.582 101.91 139.65 94.2083ZM110.833 87.0333C111.684 92.1452 112.171 97.3109 112.292 102.492L88.025 101.967C88.2231 96.8051 88.7492 91.6614 89.6 86.5666C96.8917 86.975 104.358 87.0916 110.833 87.0333ZM96.3084 64.1666C91.8185 67.3962 88.3551 71.852 86.3334 77C83.5917 83.3583 88.1417 78.6333 72.6834 82.3666C74.744 77.5712 77.9961 73.382 82.1308 70.1967C86.2656 67.0113 91.1459 64.9357 96.3084 64.1666ZM70.7 86.45C74.9135 85.8701 79.1777 85.7527 83.4167 86.1C82.3762 91.289 81.7906 96.559 81.6667 101.85C75.8334 101.85 71.225 101.85 67.55 101.325C67.3909 96.2044 68.4716 91.1212 70.7 86.5083V86.45ZM80.2667 126.583C76.7347 124.112 73.7833 120.901 71.6175 117.174C69.4516 113.446 68.1234 109.292 67.725 105C71.4 105.758 76.2417 106.575 81.6667 107.217C81.94 115.844 84.8287 124.185 89.95 131.133C86.5307 130.089 83.2721 128.578 80.2667 126.642V126.583ZM97.7667 133.058C94.4893 129.791 91.9419 125.867 90.2929 121.543C88.6438 117.219 87.9305 112.595 88.2 107.975C96.2478 108.7 104.333 108.914 112.408 108.617C112.117 114.042 110.425 127.4 106.575 132.65C103.646 133.297 100.63 133.455 97.65 133.117L97.7667 133.058ZM112.525 130.842C115.872 123.721 118.001 116.091 118.825 108.267C123.851 107.959 128.855 107.375 133.817 106.517C132.313 111.93 129.607 116.934 125.9 121.156C122.193 125.378 117.582 128.708 112.408 130.9L112.525 130.842Z" fill="#0385DB"/>
<path fill-rule="evenodd" clip-rule="evenodd" d="M48.0667 93.7416C39.025 93.7416 20.125 93.2166 11.7833 89.6583C8.69168 88.375 8.40001 89.6583 6.88334 66.325C5.96824 53.8932 6.06579 41.4076 7.17501 28.9916C16.3917 28.9916 30.5083 30.3916 49.8167 30.45C68.3083 30.45 80.0333 29.5166 93.45 29.1083C93.9104 29.0285 94.3278 28.7886 94.6286 28.4311C94.9295 28.0736 95.0945 27.6214 95.0945 27.1541C95.0945 26.6869 94.9295 26.2346 94.6286 25.8771C94.3278 25.5196 93.9104 25.2798 93.45 25.2C64.7786 23.3868 36.0214 23.3868 7.35001 25.2C8.22501 7.29163 9.27501 6.94163 8.28334 6.0083C7.97975 5.66326 7.55262 5.4515 7.0942 5.41876C6.63579 5.38601 6.18289 5.53491 5.83334 5.8333C3.85001 8.22496 4.08334 14.525 3.67501 17.0916C0.933344 40.425 -0.699989 48.1833 0.291677 66.4416C0.51665 74.6809 1.71098 82.865 3.85001 90.825C8.57501 99.4583 38.3833 98.1166 48.1833 97.65C48.6422 97.5574 49.0536 97.3056 49.3447 96.9389C49.6357 96.5723 49.7877 96.1145 49.7738 95.6466C49.7598 95.1786 49.5808 94.7308 49.2684 94.3821C48.9559 94.0335 48.5303 93.8066 48.0667 93.7416Z" fill="#0385DB"/>
<path fill-rule="evenodd" clip-rule="evenodd" d="M16.3917 6.29995C32.025 6.29995 48.475 5.54162 63.9917 6.76662C76.475 7.46662 94.2667 6.24162 100.742 11.6083C102.2 12.775 102.433 17.7916 105.467 48.0666C105.42 48.3191 105.429 48.5788 105.494 48.8272C105.559 49.0756 105.678 49.3067 105.842 49.5041C106.007 49.7015 106.212 49.8603 106.445 49.9693C106.677 50.0783 106.931 50.1348 107.188 50.1348C107.444 50.1348 107.698 50.0783 107.93 49.9693C108.163 49.8603 108.369 49.7015 108.533 49.5041C108.697 49.3067 108.816 49.0756 108.881 48.8272C108.946 48.5788 108.955 48.3191 108.908 48.0666C107.742 15.1083 108.208 10.4416 104.65 7.23328C95.6083 -0.991717 76.8833 1.04995 64.1667 0.408283C48.0667 -5.03957e-05 32.2583 1.63328 16.275 2.39162C15.8161 2.48414 15.4047 2.73601 15.1137 3.10265C14.8226 3.4693 14.6706 3.92708 14.6846 4.395C14.6985 4.86292 14.8776 5.31082 15.19 5.65945C15.5024 6.00808 15.9281 6.23496 16.3917 6.29995Z" fill="#0385DB"/>
<path fill-rule="evenodd" clip-rule="evenodd" d="M16.3333 17.5C16.6693 17.9581 17.1084 18.3307 17.6151 18.5875C18.1218 18.8443 18.6819 18.9781 19.25 18.9781C19.8181 18.9781 20.3782 18.8443 20.8849 18.5875C21.3917 18.3307 21.8308 17.9581 22.1667 17.5C22.5835 16.6773 22.7179 15.7403 22.5492 14.8337C22.3805 13.927 21.9181 13.1011 21.2333 12.4833C17.5 10.3833 13.2417 14.2333 16.3333 17.5Z" fill="#0385DB"/>
<path fill-rule="evenodd" clip-rule="evenodd" d="M28.2333 16.2749C28.5693 16.733 29.0084 17.1056 29.5151 17.3624C30.0218 17.6192 30.5819 17.753 31.15 17.753C31.7181 17.753 32.2782 17.6192 32.7849 17.3624C33.2917 17.1056 33.7308 16.733 34.0667 16.2749C34.4835 15.4522 34.6179 14.5152 34.4492 13.6085C34.2805 12.7019 33.8181 11.8759 33.1333 11.2582C29.1667 9.04153 25.1417 12.8915 28.2333 16.2749Z" fill="#0385DB"/>
<path fill-rule="evenodd" clip-rule="evenodd" d="M41.2417 16.2749C41.5752 16.6888 41.9972 17.0227 42.4767 17.2521C42.9562 17.4816 43.481 17.6007 44.0125 17.6007C44.5441 17.6007 45.0689 17.4816 45.5484 17.2521C46.0278 17.0227 46.4498 16.6888 46.7833 16.2749C47.2001 15.4522 47.3345 14.5152 47.1659 13.6085C46.9972 12.7019 46.5348 11.8759 45.85 11.2582C42.4083 9.04153 38.15 12.8915 41.2417 16.2749Z" fill="#0385DB"/>
</svg>
