<svg width="140" height="96" viewBox="0 0 140 96" fill="none" xmlns="http://www.w3.org/2000/svg">
<path d="M137.492 26.7083C136.733 17.55 138.542 6.2333 127.108 3.37497C110.775 -1.1167 37.275 0.166635 21.6417 4.24997C21.1601 4.386 20.7504 4.70423 20.4995 5.13721C20.2485 5.57019 20.1761 6.08387 20.2974 6.56937C20.4188 7.05487 20.7245 7.47402 21.1496 7.73796C21.5748 8.00191 22.0861 8.08991 22.575 7.9833C37.625 4.3083 110.075 4.1333 125.592 8.6833C132.825 10.8416 131.017 19.125 131.425 27.4666C132.533 44.325 136.558 67.775 128.8 82.7083C125.475 89.125 114.275 86.9667 107.333 87.55C81.7978 89.9196 56.1337 90.6016 30.5084 89.5916C21.2917 89.1833 10.6167 88.6583 6.00836 80.55C3.50003 75.3583 4.90003 67.075 4.95836 61.1833C5.25003 43.6833 6.24169 27.7 7.17503 11.3083C7.17503 10.8596 6.9968 10.4294 6.67955 10.1121C6.3623 9.79486 5.93202 9.61664 5.48336 9.61664C5.0347 9.61664 4.60442 9.79486 4.28717 10.1121C3.96992 10.4294 3.79169 10.8596 3.79169 11.3083C3.44169 15.8 -0.349975 70.9833 2.50768e-05 75.7666C0.301001 79.1989 1.5519 82.4794 3.61253 85.2407C5.67315 88.0019 8.46207 90.1347 11.6667 91.4C27.1834 98.05 85.6917 95.5416 107.8 93.675C116.2 92.9166 129.092 95.6 134.4 85.3333C143.442 68.3583 138.892 44.675 137.492 26.7083Z" fill="#0385DB"/>
<path d="M21.2917 66.8999C22.4583 59.6083 22.8083 58.6166 23.9167 50.5083C25.7833 50.5083 27.5333 50.9749 29.4 51.0916C32.9454 51.036 36.4787 50.6651 39.9583 49.9833H40.7167C40.1032 56.3854 40.3583 62.8412 41.475 69.1749C41.6316 69.61 41.9395 69.9741 42.3424 70.2008C42.7453 70.4275 43.2164 70.5016 43.6695 70.4096C44.1226 70.3176 44.5274 70.0655 44.81 69.6996C45.0925 69.3337 45.2339 68.8782 45.2084 68.4166C44.45 61.7666 47.1917 56.3999 47.425 42.6333V28.2833C47.4316 27.8707 47.2872 27.47 47.019 27.1565C46.7508 26.843 46.3773 26.6383 45.9687 26.581C45.5601 26.5236 45.1447 26.6176 44.8005 26.8451C44.4564 27.0727 44.2072 27.4182 44.1 27.8166C39.375 47.7083 42.0584 46.4249 40.25 46.3083C37.7423 45.2367 35.0344 44.7135 32.308 44.7739C29.5816 44.8342 26.8995 45.4767 24.4417 46.6583C25.2 38.8416 24.9083 34.9916 25.0833 27.1166C25.1375 26.668 25.0112 26.2162 24.7322 25.8606C24.4533 25.5051 24.0445 25.2749 23.5958 25.2208C23.1472 25.1666 22.6954 25.2929 22.3399 25.5719C21.9843 25.8508 21.7542 26.2596 21.7 26.7083C18.1549 39.6943 16.7365 53.1687 17.5 66.6083C17.5366 67.0653 17.7351 67.4943 18.0598 67.818C18.3845 68.1417 18.8141 68.3389 19.2712 68.374C19.7284 68.4092 20.1831 68.28 20.5535 68.0098C20.9239 67.7396 21.1856 67.346 21.2917 66.8999Z" fill="#0385DB"/>
<path d="M66.675 65.9082C66.3818 66.2607 66.224 66.7062 66.2301 67.1647C66.2361 67.6231 66.4056 68.0644 66.708 68.409C67.0104 68.7536 67.4259 68.979 67.8797 69.0445C68.3335 69.1101 68.7958 69.0115 69.1833 68.7665C76.2417 62.9332 85.225 55.4082 86.1 46.3082C86.3085 41.9181 85.1608 37.5701 82.8127 33.8549C80.4646 30.1397 77.0299 27.2371 72.975 25.5415C70.6199 24.4319 67.981 24.0719 65.4148 24.51C62.8485 24.9482 60.4785 26.1634 58.625 27.9915C56.4667 30.7915 58.625 29.9165 59.85 68.8249C59.804 69.0692 59.8125 69.3207 59.8748 69.5615C59.9371 69.8022 60.0517 70.0262 60.2104 70.2176C60.3692 70.409 60.5682 70.563 60.7932 70.6688C61.0183 70.7745 61.2639 70.8293 61.5125 70.8293C61.7612 70.8293 62.0068 70.7745 62.2318 70.6688C62.4569 70.563 62.6559 70.409 62.8146 70.2176C62.9733 70.0262 63.0879 69.8022 63.1502 69.5615C63.2125 69.3207 63.221 69.0692 63.175 68.8249C64.1667 45.4915 64.05 53.0749 63.9917 34.2915C63.9917 33.5915 62.8834 30.8499 63.9917 31.0249C65.1 31.1999 63.9917 31.0249 63.9917 31.4915C65.3334 30.1499 69.0667 30.5582 70.9333 31.4915C73.7659 32.7289 76.1957 34.7341 77.9482 37.2803C79.7006 39.8265 80.7058 42.8122 80.85 45.8999C80.3833 53.0749 71.9834 60.9499 66.675 65.9082Z" fill="#0385DB"/>
<path d="M116.667 29.3916C110.833 19.475 99.1667 24.1416 95.025 33.4166C90.475 44.0916 93.8 56.225 96.25 67.425C96.3351 67.8659 96.5919 68.255 96.9638 68.5066C97.3358 68.7582 97.7924 68.8517 98.2334 68.7666C98.6743 68.6815 99.0633 68.4248 99.3149 68.0528C99.5666 67.6809 99.6601 67.2242 99.575 66.7833C97.7667 57.1583 95.9 44.3833 100.333 35.925C102.55 31.55 108.325 27.7583 111.125 32.6C117.425 43.2166 100.392 46.5416 99.8084 47.125C99.5327 47.386 99.3169 47.7037 99.1759 48.0562C99.0349 48.4086 98.9721 48.7875 98.9917 49.1666C98.9917 51.0916 99.6334 50.975 106.458 55C110.499 58.6862 114.244 62.6847 117.658 66.9583C118.004 67.2652 118.448 67.4375 118.91 67.4439C119.372 67.4503 119.821 67.2903 120.175 66.9931C120.529 66.6959 120.764 66.2813 120.837 65.8251C120.911 65.3689 120.818 64.9015 120.575 64.5083C117.098 59.1176 112.808 54.2968 107.858 50.2166C119.058 45.9583 121.158 36.8583 116.667 29.3916Z" fill="#0385DB"/>
</svg>
