<svg width="138" height="140" viewBox="0 0 138 140" fill="none" xmlns="http://www.w3.org/2000/svg">
<path fill-rule="evenodd" clip-rule="evenodd" d="M72.4417 40.2501C72.4417 38.1501 72.4417 33.4251 65.325 33.8335C58.2083 34.2418 59.4917 45.5001 65.325 45.5001C69.9917 45.6168 72.5 44.2168 72.4417 40.2501Z" fill="#0385DB"/>
<path fill-rule="evenodd" clip-rule="evenodd" d="M137.425 59.15C136.998 55.6264 135.812 52.2374 133.949 49.2163C132.086 46.1952 129.59 43.6138 126.633 41.65C123.928 40.194 120.897 39.4512 117.825 39.4916C115.122 39.662 112.444 40.1116 109.833 40.8333C106.978 36.596 103.451 32.8525 99.3917 29.75C91.7221 24.2401 82.8382 20.6585 73.4917 19.3083C66.7223 18.6526 59.8918 19.5111 53.4953 21.8215C47.0987 24.132 41.2962 27.8365 36.5083 32.6666C33.9505 35.1395 31.6627 37.877 29.6833 40.8333C26.5739 40.0324 23.3846 39.5824 20.175 39.4916C17.1032 39.4512 14.0718 40.194 11.3667 41.65C8.41011 43.6138 5.91437 46.1952 4.05136 49.2163C2.18834 52.2374 1.00233 55.6264 0.575 59.15C-0.599546 66.1583 1.03524 73.3471 5.125 79.1583C8.19474 82.5754 12.2873 84.9082 16.7917 85.8083C21.0126 86.9535 25.4624 86.9535 29.6833 85.8083C31.0161 88.1875 32.6002 90.4169 34.4083 92.4583C34.9917 93.0416 35.75 93.5083 36.3917 94.0916C31.4261 96.9276 27.0022 100.621 23.325 105C21.5094 107.112 19.9072 109.398 18.5417 111.825C17.1574 114.194 15.9674 116.672 14.9833 119.233C12.751 125.121 11.0335 131.191 9.85 137.375C9.70176 137.962 9.78189 138.584 10.0742 139.115C10.3666 139.645 10.8493 140.045 11.425 140.233C12.0276 140.381 12.6638 140.294 13.2052 139.991C13.7465 139.688 14.1527 139.191 14.3417 138.6C16.4773 132.859 18.9912 127.266 21.8667 121.858C23.7333 118.3 25.7167 114.917 27.7 111.533C30.9491 105.959 35.042 100.921 39.8333 96.6C45.3154 100.341 51.8714 102.185 58.5 101.85C58.7682 101.842 59.0322 101.782 59.277 101.672C59.5218 101.563 59.7427 101.406 59.9268 101.211C60.111 101.016 60.255 100.787 60.3505 100.536C60.446 100.285 60.4911 100.018 60.4833 99.75C60.4532 99.2033 60.2106 98.6899 59.8074 98.3195C59.4043 97.949 58.8723 97.7506 58.325 97.7666C54.4876 97.8051 50.6863 97.0235 47.1754 95.4743C43.6644 93.925 40.5248 91.6438 37.9667 88.7833C32.7925 82.9835 29.4621 75.7745 28.4 68.075C27.9922 62.376 28.9858 56.6639 31.294 51.4374C33.6022 46.2109 37.1549 41.629 41.6417 38.0916C45.6403 34.1243 50.4597 31.0812 55.7607 29.1765C61.0617 27.2717 66.7157 26.5516 72.325 27.0666C80.4254 28.1659 88.1456 31.186 94.8417 35.875C101.449 40.4876 106.317 47.1839 108.667 54.8916C110.216 60.1153 110.243 65.6725 108.745 70.911C107.247 76.1495 104.285 80.852 100.208 84.4666C96.7331 87.6892 92.802 90.382 88.5417 92.4583C88.2613 92.5354 88.002 92.675 87.7833 92.8666C82.0445 95.7605 75.8098 97.5419 69.4083 98.1166C68.7996 98.1616 68.2327 98.4432 67.8293 98.9012C67.4258 99.3592 67.2178 99.9571 67.25 100.567C67.2647 100.871 67.3403 101.169 67.4723 101.443C67.6043 101.718 67.79 101.963 68.0185 102.164C68.247 102.365 68.5135 102.519 68.8024 102.615C69.0912 102.711 69.3964 102.749 69.7 102.725C76.5028 102.3 83.168 100.619 89.3583 97.7666C93.6491 101.733 97.378 106.266 100.442 111.242C102.542 114.625 104.525 118.008 106.275 121.567C109.146 126.985 111.678 132.577 113.858 138.308C114.022 138.903 114.415 139.409 114.95 139.715C115.486 140.021 116.121 140.103 116.717 139.942C117.301 139.766 117.793 139.368 118.087 138.834C118.381 138.299 118.455 137.671 118.292 137.083C117.101 130.907 115.403 124.839 113.217 118.942C112.264 116.396 111.133 113.92 109.833 111.533C108.491 109.211 106.928 107.023 105.167 105C102.003 101.393 98.3275 98.2679 94.2583 95.725C99.1966 93.0194 103.62 89.4651 107.325 85.225C107.617 85.225 107.792 85.8083 108.2 85.925C112.421 87.0702 116.871 87.0702 121.092 85.925C125.596 85.0248 129.689 82.6921 132.758 79.275C136.919 73.4502 138.598 66.2117 137.425 59.15ZM18.4833 80.2667C15.3798 79.4054 12.6379 77.5638 10.6667 75.0166C8.1111 70.5478 7.28103 65.2976 8.33333 60.2583C8.74362 57.6878 9.52982 55.1916 10.6667 52.85C11.5466 50.5639 13.0158 48.5514 14.925 47.0166C16.6641 45.8319 18.6669 45.0909 20.7583 44.8583C23.0258 44.596 25.3159 44.596 27.5833 44.8583C23.3086 52.0938 21.6604 60.5822 22.9167 68.8917C23.7046 73.1519 25.0994 77.2772 27.0583 81.1416C24.1704 81.4746 21.2445 81.176 18.4833 80.2667ZM127.333 75.0166C125.362 77.5638 122.62 79.4054 119.517 80.2667C116.585 81.3162 113.442 81.6365 110.358 81.2C113.216 77.1622 115.138 72.5387 115.986 67.6651C116.834 62.7916 116.585 57.7904 115.258 53.025C114.479 50.1789 113.403 47.4222 112.05 44.8C113.836 44.6536 115.631 44.6536 117.417 44.8C119.508 45.0325 121.511 45.7736 123.25 46.9583C125.159 48.493 126.628 50.5056 127.508 52.7916C128.605 55.1396 129.352 57.6356 129.725 60.2C130.775 65.265 129.923 70.5391 127.333 75.0166Z" fill="#0385DB"/>
<path fill-rule="evenodd" clip-rule="evenodd" d="M25.425 31.0334C31.8435 21.0688 41.7768 13.8844 53.25 10.9084C58.8256 9.13612 64.6128 8.116 70.4583 7.8751C76.2361 7.50307 82.0352 8.11453 87.6083 9.68343C93.3689 11.2663 98.7208 14.0716 103.3 17.9084C107.965 21.8338 111.743 26.7052 114.383 32.2001C114.627 32.7471 115.072 33.1793 115.626 33.4073C116.18 33.6354 116.8 33.6417 117.358 33.4251C117.641 33.3106 117.898 33.1403 118.114 32.9243C118.33 32.7084 118.5 32.4513 118.614 32.1682C118.728 31.8852 118.785 31.5821 118.779 31.2769C118.774 30.9717 118.707 30.6707 118.583 30.3918C116.077 24.0186 112.216 18.2664 107.267 13.5334C102.282 8.71321 96.3117 5.03136 89.7667 2.74177C83.4308 0.658473 76.7724 -0.270153 70.1083 9.95658e-05C63.5143 0.320883 57.0147 1.69958 50.8583 4.08343C38.2742 8.33589 27.8497 17.337 21.8083 29.1668C21.6888 29.4079 21.618 29.6703 21.6003 29.9389C21.5825 30.2075 21.618 30.4769 21.7047 30.7317C21.7915 30.9865 21.9277 31.2217 22.1057 31.4236C22.2837 31.6256 22.4998 31.7903 22.7417 31.9084C22.975 32.0288 23.2299 32.1017 23.4916 32.1229C23.7533 32.144 24.0165 32.113 24.2662 32.0316C24.5158 31.9502 24.7467 31.8201 24.9457 31.6487C25.1446 31.4774 25.3075 31.2682 25.425 31.0334Z" fill="#0385DB"/>
<path fill-rule="evenodd" clip-rule="evenodd" d="M53.95 76.825C53.6815 76.7839 53.4075 76.7967 53.1441 76.8628C52.8806 76.9288 52.633 77.0468 52.4157 77.2098C52.1984 77.3727 52.0158 77.5774 51.8786 77.8119C51.7414 78.0463 51.6523 78.3057 51.6167 78.575C51.5757 78.8402 51.589 79.1109 51.6557 79.3708C51.7224 79.6307 51.8411 79.8744 52.0047 80.0871C52.1683 80.2998 52.3734 80.4771 52.6075 80.6082C52.8416 80.7393 53.0998 80.8216 53.3667 80.85C56.9127 82.0856 60.5949 82.8886 64.3333 83.2417C66.4855 83.4718 68.6561 83.4718 70.8083 83.2417C74.075 82.8333 77.1083 82.0167 80.3167 81.4917C80.6206 81.4843 80.9199 81.4161 81.197 81.2911C81.4741 81.166 81.7233 80.9868 81.9299 80.7638C82.1366 80.5409 82.2964 80.2788 82.4001 79.993C82.5037 79.7072 82.549 79.4036 82.5333 79.1C82.5258 78.7936 82.4579 78.4916 82.3336 78.2114C82.2093 77.9312 82.031 77.6782 81.8089 77.467C81.5868 77.2557 81.3252 77.0903 81.0391 76.9801C80.7531 76.87 80.4481 76.8173 80.1417 76.825C77.225 76.825 74.3083 76.125 71.2167 75.95C71.5667 73.7917 72.0333 71.6333 72.2083 69.4167C72.3833 67.2 72.2083 64.4583 72.2083 62.0667C72.0925 60.3551 71.6779 58.677 70.9833 57.1083C70.3147 55.5622 69.1429 54.2877 67.6583 53.4917C66.2681 52.7892 64.7234 52.4482 63.1667 52.5C60.7167 52.7917 57.9167 53.8417 56.225 54.1917C55.6887 54.2506 55.1956 54.5137 54.848 54.9264C54.5005 55.3391 54.3251 55.8698 54.3583 56.4083C54.3724 56.6797 54.4421 56.9453 54.563 57.1886C54.684 57.4319 54.8536 57.6478 55.0615 57.8228C55.2693 57.9979 55.5109 58.1283 55.7713 58.2061C56.0316 58.2839 56.3052 58.3073 56.575 58.275H62.4083C63.104 58.318 63.7725 58.561 64.3333 58.975C64.6266 59.9601 64.7836 60.9807 64.8 62.0083C64.8 63.35 64.8 64.6917 65.15 66.0917C65.5 67.4917 65.675 70.175 65.85 71.925V74.8417L63.1667 75.8333C59.8417 75.8333 56.9833 76.7083 53.95 76.825Z" fill="#0385DB"/>
</svg>
