<svg width="140" height="140" viewBox="0 0 140 140" fill="none" xmlns="http://www.w3.org/2000/svg">
<path fill-rule="evenodd" clip-rule="evenodd" d="M138.833 23.3333C137.9 17.5 140.642 8.80833 122.5 3.32499C115.641 1.50472 108.594 0.486793 101.5 0.291662C82.3083 -0.933338 76.1833 2.21666 46.1417 2.50833C45.8735 2.50833 45.6081 2.56114 45.3603 2.66374C45.1126 2.76634 44.8876 2.91673 44.698 3.10632C44.5084 3.2959 44.358 3.52098 44.2554 3.76868C44.1528 4.01639 44.1 4.28188 44.1 4.54999C44.1 4.81811 44.1528 5.0836 44.2554 5.33131C44.358 5.57901 44.5084 5.80408 44.698 5.99367C44.8876 6.18326 45.1126 6.33364 45.3603 6.43625C45.6081 6.53885 45.8735 6.59166 46.1417 6.59166C55.1321 6.8749 64.1314 6.62168 73.0917 5.83333C71.8667 16.2167 71.4 16.625 71.05 23.975C70.7 32.3167 71.5167 52.7333 71.9833 54.95C72.5671 57.9131 73.9695 60.6534 76.0317 62.8599C78.0938 65.0664 80.7331 66.6508 83.65 67.4333C95.3167 70.9917 132.067 64.5167 132.533 64.225C132.533 66.5 132.533 68.7167 132.183 70.9333C131.6 76.2417 132.183 79.5667 129.5 83.475C124.658 90.1833 117.133 88.6083 108.908 89.775C89.1109 91.596 69.2145 92.1027 49.35 91.2917C41.6461 91.9452 33.9362 90.1046 27.3583 86.0417C23.3333 83.3583 23.8 72.3917 23.3333 66.9667C21.7791 52.9247 21.4473 38.7743 22.3417 24.675C23.3333 15.925 26.3083 8.10833 35 8.04999C35.4796 8.04999 35.9395 7.85947 36.2787 7.52035C36.6178 7.18122 36.8083 6.72126 36.8083 6.24166C36.8083 5.76206 36.6178 5.3021 36.2787 4.96298C35.9395 4.62385 35.4796 4.43333 35 4.43333C24.15 4.31666 19.425 13.4167 18.2 24.2667C16.9749 38.61 16.9749 53.0317 18.2 67.375C18.6667 73.9083 17.7917 81.6667 21.4667 87.9667C23.1402 90.1088 25.3271 91.7942 27.825 92.8667C36.6917 98.35 48.5333 97.4167 64.9833 97.8833C64.4 103.717 63.7 106.867 63.2333 113.342C62.7667 113.342 36.8083 111.942 36.4583 112.408C36.6946 110.625 36.3221 108.814 35.4011 107.268C34.4801 105.722 33.0645 104.533 31.3833 103.892C24.792 102.008 17.8955 101.433 11.0833 102.2C-2.04168 105 -2.45001 118.883 7.23332 123.258C12.6957 125.076 18.4777 125.732 24.2083 125.183C31.0333 125.592 34.8833 124.892 35.875 116.783C50.3417 121.625 51.5083 119.642 62.8833 117.775C62.5483 124.279 62.8021 130.8 63.6417 137.258C64.08 137.569 64.6205 137.699 65.1521 137.623C65.6838 137.547 66.1661 137.271 66.5 136.85C69.7656 124.172 70.6165 110.993 69.0083 98H83.125C83.125 98.8167 82.775 96.3667 83.125 110.017C82.9871 116.548 83.5148 123.076 84.7 129.5C84.7 130.025 86.3333 136.675 86.5667 137.2C87.5583 140.642 90.9417 141.225 90.5333 135.742C88.4917 105.642 92.4583 129.383 87.2667 99.6917C87.2715 99.0905 87.1523 98.4948 86.9167 97.9417C94.5846 97.9195 102.243 97.3933 109.842 96.3667C115.041 96.1055 120.211 95.4227 125.3 94.325C128.427 93.3513 131.243 91.5721 133.465 89.1659C135.687 86.7597 137.236 83.8113 137.958 80.6167C139.047 71.4233 139.398 62.1577 139.008 52.9083C139.618 43.0574 139.56 33.1764 138.833 23.3333ZM32.0833 120.05C25.6083 120.05 8.34166 121.392 7.40832 114.217C12.7167 105.525 28.1167 108.383 29.6333 108.383C31.15 108.383 31.85 109.2 32.1417 112.35C32.55 116.958 31.675 119 32.0833 120.05ZM81.2 58.3333C77.525 55.0667 78.3417 47.8333 77.875 42.525C76.044 30.3811 75.7109 18.0584 76.8833 5.83333C92.05 4.84166 120.808 4.19999 131.308 14.875C132.942 16.5083 132.475 21.7583 132.883 24.5583C134.108 33.7167 132.592 40.425 132.592 60.8417C128.683 58.625 91.2333 67.3167 81.2 58.3333Z" fill="#0385DB"/>
<path fill-rule="evenodd" clip-rule="evenodd" d="M119.992 18.9583C115.165 15.7645 109.31 14.5142 103.6 15.4583C99.9482 16.0521 96.5785 17.788 93.975 20.4167C92.0325 22.4642 90.5732 24.9209 89.7044 27.6062C88.8355 30.2915 88.5791 33.1373 88.9539 35.9347C89.3288 38.7321 90.3254 41.41 91.8706 43.7718C93.4157 46.1336 95.4703 48.1194 97.8833 49.5833C100.75 50.9058 103.882 51.5516 107.038 51.4707C110.193 51.3897 113.288 50.5843 116.083 49.1167C118.699 47.7071 120.942 45.6952 122.626 43.2474C124.31 40.7996 125.388 37.9862 125.77 35.0395C126.151 32.0929 125.827 29.0977 124.822 26.3014C123.817 23.5052 122.162 20.9881 119.992 18.9583ZM113.867 44.625C111.804 45.574 109.547 46.0261 107.278 45.9451C105.009 45.864 102.79 45.2521 100.8 44.1583C98.7753 42.7375 97.278 40.6863 96.5416 38.325C95.3715 36.1893 94.9538 33.722 95.3559 31.3201C95.758 28.9183 96.9564 26.7215 98.7583 25.0833C100.277 23.3094 102.319 22.0634 104.592 21.525C108.882 20.3664 113.449 20.8231 117.425 22.8083C119.244 24.1771 120.654 26.0171 121.502 28.1293C122.35 30.2415 122.605 32.5455 122.239 34.792C121.872 37.0386 120.899 39.1422 119.423 40.8753C117.947 42.6084 116.026 43.9051 113.867 44.625Z" fill="#0385DB"/>
<path fill-rule="evenodd" clip-rule="evenodd" d="M117.6 27.9417C114.683 24.4417 110.075 25.0251 109.608 26.4251C109.458 26.6069 109.346 26.8173 109.279 27.0435C109.213 27.2697 109.192 27.5071 109.219 27.7414C109.247 27.9757 109.321 28.2021 109.438 28.4069C109.555 28.6117 109.712 28.7908 109.9 28.9334C111.046 29.6438 111.911 30.7296 112.347 32.0058C112.783 33.2821 112.764 34.67 112.292 35.9334C112.292 36.2015 112.344 36.467 112.447 36.7147C112.55 36.9624 112.7 37.1875 112.89 37.3771C113.079 37.5667 113.304 37.717 113.552 37.8196C113.8 37.9223 114.065 37.9751 114.333 37.9751C114.858 37.9751 115.383 37.9751 116.142 37.2167C117.066 36.2883 117.817 35.2017 118.358 34.0084C118.699 33.0057 118.808 31.9387 118.676 30.8879C118.545 29.837 118.177 28.8297 117.6 27.9417Z" fill="#0385DB"/>
<path fill-rule="evenodd" clip-rule="evenodd" d="M65.1 43.1084C67.6667 40.5418 66.2083 34.8251 66.2083 32.2001C66.2083 27.8251 66.2083 21.0584 62.9417 17.8501C60.9583 15.9834 58.625 16.7418 56.35 16.8001C26.3667 17.4418 29.8083 16.8001 28.2917 27.5918C26.775 38.3834 26.8917 40.4834 28.2917 42.2334C34.125 48.8834 44.625 46.5501 51.625 46.2584C55.475 45.9668 61.6 46.6668 65.1 43.1084ZM59.675 39.0834C57.1667 38.5001 42.4083 40.8334 38.5 40.8334C36.4269 40.8289 34.3999 40.2208 32.6667 39.0834C32.6667 38.5584 32.375 28.4084 32.3167 27.9418L32.6667 23.3334C33.0167 20.3584 50.1667 22.8668 58.6833 22.3418C59.7333 23.3334 61.3083 39.4918 59.675 39.0834Z" fill="#0385DB"/>
<path fill-rule="evenodd" clip-rule="evenodd" d="M36.4583 73.5584C36.4763 75.5182 37.0958 77.4253 38.233 79.0215C39.3702 80.6178 40.9702 81.8262 42.8166 82.4834C52.5583 85.5751 66.15 73.9084 57.2833 64.5751C48.4166 55.2417 35.5833 61.2501 36.4583 73.5584ZM44.8 75.8334C41.5333 74.9001 41.8833 66.5001 44.8 64.8084C49.175 62.2417 53.6666 67.0834 54.3666 69.8834C55.0666 72.6834 48.0666 76.8834 44.8 75.8334Z" fill="#0385DB"/>
</svg>
