<svg width="140" height="138" viewBox="0 0 140 138" fill="none" xmlns="http://www.w3.org/2000/svg">
<path fill-rule="evenodd" clip-rule="evenodd" d="M135.975 42.925C133.008 40.247 129.215 38.6651 125.224 38.4423C121.234 38.2194 117.288 39.369 114.042 41.7C111.328 44.1226 109.262 47.1835 108.03 50.6058C106.797 54.0281 106.438 57.7037 106.983 61.3C106.76 61.8855 106.423 62.4209 105.992 62.875C103.192 60.075 102.667 58.9667 101.208 58.0917C99.6134 57.286 97.8746 56.8042 96.0925 56.6741C94.3104 56.5439 92.5201 56.768 90.825 57.3333C89.2219 57.8961 87.8892 59.0414 87.0917 60.5417C83.5073 62.0487 80.5726 64.7767 78.8083 68.2416C76.1833 74.6583 80.2667 79.9083 83.825 85.1583C85.5715 87.7591 87.5221 90.2168 89.6583 92.5083C95.6335 97.6714 102.72 101.385 110.367 103.358C112.142 103.454 113.914 103.116 115.53 102.374C117.145 101.632 118.557 100.508 119.642 99.1C123.375 94.8417 128.158 88.425 126.583 83.2333C123.9 74.1333 115.5 73.7833 118.592 78.3916C120.166 80.0927 121.412 82.0704 122.267 84.225C122.349 84.8042 122.308 85.3942 122.149 85.9571C121.99 86.52 121.714 87.0434 121.341 87.4937C120.968 87.944 120.504 88.3114 119.98 88.5722C119.457 88.833 118.884 88.9816 118.3 89.0083C113.4 89.5333 99.3417 78.975 94.9667 70.4583C93.5097 68.5091 92.4584 66.2876 91.875 63.925C91.875 60.3666 97.7083 60.25 99.8083 61.2417L104.125 65.2083C102.2 67.1333 99.6333 69.6417 101.383 71.0417C101.708 71.3451 102.135 71.514 102.579 71.514C103.023 71.514 103.451 71.3451 103.775 71.0417C104.65 68.65 109.958 65.85 111.417 62.2333C112.875 58.6166 110.25 55.1166 115.383 48.525C117.337 46.2068 120.116 44.74 123.132 44.4352C126.148 44.1303 129.164 45.0113 131.542 46.8917C136.617 52.2583 133.992 65.2666 125.708 67.075C122.558 67.8333 119.875 67.075 116.958 69.4083C115.556 70.7245 114.304 72.1918 113.225 73.7833C111.533 76.0583 109.492 78.0416 111.942 79.0916C114.392 80.1416 114.625 78.5083 116.433 76.35C117.367 75.0833 118.444 73.9284 119.642 72.9083C121.508 71.625 124.075 72.9083 127.75 71.8C130.468 70.7543 132.905 69.0911 134.869 66.9418C136.834 64.7924 138.272 62.2158 139.069 59.4153C139.867 56.6149 140.003 53.6674 139.466 50.8055C138.929 47.9436 137.734 45.2457 135.975 42.925ZM96.775 83.7583C101.092 87.9 110.6 94.725 117.425 94.4917C115.383 96.7667 113.05 98.8666 110.192 97.9333C101.434 95.0184 93.9532 89.1657 89.0167 81.3666C86.9926 79.2017 85.2485 76.7912 83.825 74.1917C83.1832 72.9274 82.9783 71.4862 83.2421 70.0932C83.5059 68.7001 84.2237 67.4337 85.2833 66.4916L86.2167 65.7333C87.9306 72.6819 91.5938 78.9962 96.775 83.9333V83.7583Z" fill="#0385DB"/>
<path fill-rule="evenodd" clip-rule="evenodd" d="M73.6167 125.058C67.6439 127.367 61.4163 128.954 55.0667 129.783C48.5333 130.483 43.4 132 39.9583 131.942C39.55 131.942 39.0833 131.533 38.9083 131.65C31.0333 115.317 4.14167 29.7415 3.20833 28.1665C3.04125 27.865 2.78883 27.6195 2.48274 27.4609C2.17665 27.3023 1.83053 27.2376 1.48782 27.275C1.14511 27.3124 0.821075 27.4501 0.556383 27.671C0.291692 27.8919 0.0981336 28.186 0 28.5165C0 29.0415 12.95 77.3415 14.4083 82.2998C19.6879 100.11 26.238 117.519 34.0083 134.392C37.1583 140.225 46.2583 135.908 55.7083 134.392C62.2594 133.145 68.6554 131.189 74.7833 128.558C75.0882 128.302 75.3091 127.961 75.4173 127.578C75.5256 127.195 75.5162 126.789 75.3904 126.411C75.2645 126.034 75.0281 125.703 74.7118 125.462C74.3955 125.22 74.0139 125.08 73.6167 125.058Z" fill="#0385DB"/>
<path fill-rule="evenodd" clip-rule="evenodd" d="M5.19166 24.4332C22.2636 18.0871 39.8208 13.1321 57.6917 9.61656C63.0891 8.41644 68.568 7.61704 74.0833 7.22489C73.325 13.0582 69.1833 29.6832 77.6417 30.5582C85.6939 30.2347 93.3498 26.9773 99.1667 21.3999C101.15 30.3249 100.1 26.2416 103.833 39.8332C104.007 40.2204 104.315 40.5314 104.701 40.7082C105.087 40.885 105.524 40.9156 105.93 40.7943C106.337 40.673 106.686 40.4081 106.912 40.0489C107.138 39.6897 107.225 39.2606 107.158 38.8416C105.524 32.1327 104.278 25.3354 103.425 18.4832C102.783 13.9916 81.6083 -0.00843936 72.5083 0.983227C45.5 3.31656 21.875 14.0499 3.61666 20.8749C3.14479 21.0838 2.77522 21.4715 2.58925 21.9528C2.40327 22.4342 2.41613 22.9697 2.62499 23.4416C2.83385 23.9134 3.2216 24.283 3.70294 24.469C4.18428 24.6549 4.71979 24.6421 5.19166 24.4332ZM96.5416 17.8999C94.0917 21.3416 83.825 23.7332 79.0417 23.7332C78.2561 18.5022 77.9243 13.2131 78.05 7.92489C84.6115 10.4532 90.8251 13.8051 96.5416 17.8999Z" fill="#0385DB"/>
<path fill-rule="evenodd" clip-rule="evenodd" d="M130.083 103.475C126.758 103.475 130.608 108.317 124.775 119.05L107.683 112.342C106.108 111.758 106.983 111.583 88.4917 123.716C86.7124 118.371 84.6285 113.132 82.25 108.025C79.8583 104.758 71.575 107.5 59.85 109.658C68.25 97.2915 69.7083 95.4832 67.2583 93.2082C64.8083 90.9332 51.975 82.9998 50.6333 80.9582C52.0917 80.2582 54.6583 79.1498 57.225 78.0998C64.4583 75.2415 65.3333 75.9415 65.8583 73.8415C66.3833 71.7415 64.575 62.1748 64.9833 58.6748C65.6833 58.6748 64.3417 58.2665 74.2 60.4248C74.7105 60.4867 75.2248 60.3433 75.6295 60.026C76.0343 59.7088 76.2965 59.2437 76.3583 58.7332C76.4202 58.2226 76.2768 57.7084 75.9595 57.3036C75.6423 56.8989 75.1772 56.6367 74.6667 56.5748C71.6917 56.1665 63.7 52.3748 61.6 55.5832C60.5919 60.8518 60.4343 66.248 61.1333 71.5665C56.7228 72.8713 52.3978 74.4493 48.1833 76.2915C46.4333 77.1665 44.3917 77.4582 43.8667 79.5582C43.3417 81.6582 45.5 83.9915 47.3667 85.3915C49.2333 86.7915 57.4583 93.2082 61.1917 96.0082C57.4772 100.933 54.0306 106.054 50.8667 111.35C50.4643 112.133 50.3668 113.038 50.5931 113.89C50.8194 114.741 51.3533 115.478 52.0917 115.958C54.7945 117.001 57.7888 117.001 60.4917 115.958C64.05 115.316 73.4417 113.158 77.9917 112.808C82.6583 122.142 83.825 133.808 89.1917 130.308L107.508 117.125L125.008 123.25C125.448 123.417 125.932 123.427 126.379 123.278C126.825 123.129 127.207 122.831 127.458 122.433C130.525 117.119 132.079 111.067 131.95 104.933C131.892 104.494 131.664 104.095 131.315 103.823C130.965 103.55 130.523 103.425 130.083 103.475Z" fill="#0385DB"/>
<path fill-rule="evenodd" clip-rule="evenodd" d="M58.3333 30.6166C58.8361 30.5083 59.2753 30.2047 59.5543 29.7726C59.8333 29.3405 59.9291 28.8153 59.8208 28.3125C59.7125 27.8097 59.4089 27.3705 58.9768 27.0915C58.5447 26.8126 58.0195 26.7167 57.5167 26.825C45.4211 29.0288 33.834 33.4383 23.3333 39.8333C23.1188 39.9023 22.92 40.0128 22.7482 40.1586C22.5765 40.3043 22.4351 40.4825 22.3322 40.6829C22.2292 40.8834 22.1668 41.1021 22.1484 41.3266C22.13 41.5512 22.1561 41.7772 22.225 41.9916C22.2939 42.2061 22.4045 42.405 22.5502 42.5767C22.696 42.7485 22.8742 42.8899 23.0746 42.9928C23.275 43.0957 23.4938 43.1582 23.7183 43.1766C23.9429 43.1949 24.1688 43.1689 24.3833 43.1C43.1667 39.1333 49.4667 33.3 58.3333 30.6166Z" fill="#0385DB"/>
<path fill-rule="evenodd" clip-rule="evenodd" d="M36.8083 58.85C41.3704 58.4724 45.8218 57.2458 49.9333 55.2333C52.6847 53.5102 55.6996 52.2491 58.8583 51.5C59.3187 51.4201 59.7361 51.1803 60.037 50.8228C60.3378 50.4653 60.5028 50.013 60.5028 49.5458C60.5028 49.0785 60.3378 48.6263 60.037 48.2688C59.7361 47.9113 59.3187 47.6715 58.8583 47.5916C56.2705 47.3733 53.6644 47.6102 51.1583 48.2916C47.7299 49.0756 44.4026 50.2499 41.2417 51.7916C42.7 51.2666 31.85 55.7583 31.6167 56.225C30.3333 59.2583 33.6583 59.4333 36.8083 58.85Z" fill="#0385DB"/>
</svg>
