<svg width="140" height="140" viewBox="0 0 140 140" fill="none" xmlns="http://www.w3.org/2000/svg">
<path fill-rule="evenodd" clip-rule="evenodd" d="M132.533 10.6749C125.443 6.89985 117.837 4.18752 109.958 2.62491C93.0949 -0.485284 75.8407 -0.859519 58.8583 1.51658C53.025 2.21658 45.9083 2.91658 42.4667 7.75825C39.9978 12.5579 38.9266 17.9545 39.375 23.3332C36.75 49.6416 43.225 85.6916 26.25 93.9166C25.838 94.1748 25.5352 94.5754 25.3991 95.0422C25.2631 95.509 25.3033 96.0096 25.512 96.4487C25.7208 96.8878 26.0836 97.235 26.5316 97.4242C26.9795 97.6134 27.4813 97.6314 27.9417 97.4749C48.4167 88.4332 42.4667 50.8082 45.9083 23.9166C46.6667 19.8916 45.7333 14.5249 47.8333 11.6666C49.9333 8.80825 56.525 8.34158 59.5 7.93325C88.6667 3.44158 103.717 5.36658 116.958 8.39991C83.825 18.9582 111.708 68.5416 101.15 103.833C96.1917 120.458 81.9583 126.117 74.2583 123.375C67.7405 119.801 62.3013 114.543 58.5083 108.15C54.6 102.317 54.5417 99.8666 51.7417 99.9832C46.725 99.9832 9.04167 101.675 4.14167 102.375C2.39167 102.375 0.991667 103.542 0.758333 106.983C0.573373 114.739 2.75013 122.368 7 128.858C8.97397 131.638 11.4809 133.998 14.375 135.801C17.2691 137.603 20.4927 138.813 23.8583 139.358C35.0364 140.35 46.2803 140.35 57.4583 139.358C62.2736 138.8 67.0343 137.844 71.6917 136.5C71.9119 136.446 72.119 136.348 72.3007 136.212C72.4824 136.076 72.6349 135.905 72.7492 135.71C72.8635 135.514 72.9372 135.297 72.966 135.072C72.9947 134.847 72.978 134.618 72.9167 134.4C72.1 131.483 70 134.4 57.1083 135.625C46.3225 136.413 35.4879 136.238 24.7333 135.1C15.3417 133.117 8.34167 126.992 6.125 112.175V107.975C10.2667 107.275 26.8333 106.983 49.9333 106.458C51.7493 109.93 53.8775 113.23 56.2917 116.317C65.3333 127.05 73.5 134.167 86.9167 129.033C113.05 119.175 111.533 88.1999 108.267 60.6082C106.283 43.3999 102.433 25.8999 111.125 17.7332C118.417 10.7916 129.617 9.27491 133.175 20.4166C134.589 25.9569 135.023 31.7017 134.458 37.3916C133.992 39.6082 133.35 40.0749 131.425 40.5416C124.913 41.8572 118.329 42.7921 111.708 43.3416C111.182 43.3416 110.678 43.5505 110.306 43.9225C109.934 44.2944 109.725 44.7989 109.725 45.3249C109.725 45.8509 109.934 46.3554 110.306 46.7273C110.678 47.0993 111.182 47.3082 111.708 47.3082C117.423 46.9802 123.112 46.2984 128.742 45.2666C136.675 44.2749 139.067 42.6416 139.125 32.4332C139.183 24.9666 138.308 15.4582 132.533 10.6749Z" fill="#0385DB"/>
<path fill-rule="evenodd" clip-rule="evenodd" d="M46.6667 76.125C46.2 77 46.6667 77.9333 47.6583 78.9833C51.975 83.1833 60.375 81.375 64.2833 80.675C66.6167 80.675 66.5583 76.7666 64.2833 76.7666C48.5917 73.7916 47.8917 74.0833 46.6667 76.125Z" fill="#0385DB"/>
<path fill-rule="evenodd" clip-rule="evenodd" d="M51.3333 60.4332C55.65 64.6332 64.05 62.8249 67.9583 62.0666C70.2333 62.0666 70.2333 58.1582 67.9583 58.1582C52.15 55.2416 51.45 55.4749 50.4583 57.5166C49.8167 58.3332 50.225 59.3832 51.3333 60.4332Z" fill="#0385DB"/>
<path fill-rule="evenodd" clip-rule="evenodd" d="M67.9583 40.8333C70.2333 40.8333 70.2333 36.9249 67.9583 36.9249C52.15 33.9499 51.45 34.2416 50.4583 36.2249C49.9333 37.1583 50.4583 38.0916 51.45 39.1416C55.65 43.2249 64.1667 41.4166 67.9583 40.8333Z" fill="#0385DB"/>
<path fill-rule="evenodd" clip-rule="evenodd" d="M92.575 40.8333C94.9083 40.8333 94.9083 36.9249 92.575 36.9249C76.7667 33.9499 76.125 34.2416 75.075 36.2249C74.55 37.1583 75.075 38.0916 76.0083 39.1416C80.325 43.2249 88.725 41.4166 92.575 40.8333Z" fill="#0385DB"/>
<path fill-rule="evenodd" clip-rule="evenodd" d="M74.6083 81.2C76.5862 82.3096 78.7696 83.0043 81.025 83.2417C84.0684 83.7508 87.018 84.7143 89.775 86.1C92.05 87.6167 91.8167 90.2417 86.975 90.5917C82.8751 90.8821 78.7892 89.8606 75.3083 87.675C75.1168 87.5065 74.894 87.3773 74.6526 87.2949C74.4111 87.2125 74.1558 87.1784 73.9012 87.1947C73.6467 87.2109 73.3978 87.2772 73.1688 87.3896C72.9398 87.5021 72.7352 87.6585 72.5667 87.85C72.3981 88.0415 72.269 88.2644 72.1866 88.5058C72.1041 88.7472 72.0701 89.0025 72.0863 89.2571C72.1026 89.5117 72.1688 89.7606 72.2813 89.9896C72.3937 90.2186 72.5501 90.4232 72.7417 90.5917C75.1625 92.6478 78.0442 94.0887 81.1417 94.7917C78.8667 98.4083 81.55 103.542 83.3583 103.542C85.1667 103.542 87.5583 98.5833 86.1583 95.6667C88.9615 95.8289 91.7479 95.1374 94.15 93.6833C95.0313 93.0788 95.7726 92.2922 96.3238 91.3766C96.8749 90.4609 97.2231 89.4377 97.3447 88.3759C97.4664 87.3141 97.3587 86.2386 97.029 85.222C96.6992 84.2055 96.1551 83.2715 95.4333 82.4834C91.8229 79.4238 87.4464 77.407 82.775 76.65C81.44 76.4957 80.1155 76.2619 78.8083 75.95C77.875 75.4834 77.4083 73.3834 80.4417 71.75C86.275 68.5417 91.0583 70.4667 92.1083 72.9167C92.2993 73.3297 92.6437 73.652 93.0684 73.8154C93.4931 73.9787 93.9648 73.9702 94.3833 73.7917C97.4167 72.45 92.9833 66.0333 86.3917 65.5667C86.7454 64.0332 86.7006 62.4347 86.2615 60.9234C85.8225 59.4122 85.0037 58.0385 83.8833 56.9333C82.25 56.9333 79.1 61.5417 80.85 66.15C70.2917 68.8333 70 77.7 74.6083 81.2Z" fill="#0385DB"/>
</svg>
