<svg width="458" height="347" viewBox="0 0 458 347" fill="none" xmlns="http://www.w3.org/2000/svg">
<path d="M356.099 52.7729H77.1586C69.9748 52.7729 64.1511 58.5988 64.1511 65.7854V281.215C64.1511 288.401 69.9748 294.227 77.1586 294.227H356.099C363.283 294.227 369.107 288.401 369.107 281.215V65.7854C369.107 58.5988 363.283 52.7729 356.099 52.7729Z" fill="#E4F9FF"/>
<path d="M340.924 63.6166H93.0569C86.6712 63.6166 81.4946 68.7952 81.4946 75.1833V227.719C81.4946 234.107 86.6712 239.285 93.0569 239.285H340.924C347.309 239.285 352.486 234.107 352.486 227.719V75.1833C352.486 68.7952 347.309 63.6166 340.924 63.6166Z" fill="#D1242B"/>
<path d="M342.73 257.358H91.2503C85.8624 257.358 81.4946 261.728 81.4946 267.118C81.4946 272.508 85.8624 276.877 91.2503 276.877H342.73C348.118 276.877 352.486 272.508 352.486 267.118C352.486 261.728 348.118 257.358 342.73 257.358Z" fill="#CBCBCB"/>
<path d="M171.464 257.358H91.2503C85.8624 257.358 81.4946 261.728 81.4946 267.118C81.4946 272.508 85.8624 276.877 91.2503 276.877H171.464C176.852 276.877 181.219 272.508 181.219 267.118C181.219 261.728 176.852 257.358 171.464 257.358Z" fill="#D1242B"/>
<path d="M182.829 104.451C182.829 99.4422 188.249 96.312 192.584 98.8162L274.742 146.268C279.078 148.772 279.078 155.032 274.742 157.537L192.584 204.988C188.249 207.492 182.829 204.362 182.829 199.354V104.451Z" fill="white"/>
<path d="M177.245 284.106C186.624 284.106 194.227 276.5 194.227 267.118C194.227 257.735 186.624 250.129 177.245 250.129C167.866 250.129 160.263 257.735 160.263 267.118C160.263 276.5 167.866 284.106 177.245 284.106Z" fill="#640C10"/>
<path d="M448.598 183.884C448.598 190.197 446.368 195.587 441.907 200.054C437.447 204.521 432.066 206.754 425.762 206.754H361.062C353.727 206.754 347.453 204.144 342.24 198.922C337.026 193.701 334.42 187.418 334.42 180.072C334.42 174.831 335.828 170.036 338.642 165.689C341.457 161.341 345.163 158.095 349.762 155.95C349.684 154.839 349.644 153.986 349.644 153.39C349.644 144.972 352.617 137.786 358.563 131.83C364.511 125.874 371.686 122.896 380.091 122.896C386.355 122.896 392.034 124.643 397.129 128.137C402.223 131.631 405.939 136.197 408.278 141.836C411.054 139.374 414.344 138.143 418.15 138.143C422.353 138.143 425.941 139.632 428.913 142.61C431.887 145.587 433.374 149.181 433.374 153.39C433.374 156.368 432.561 159.107 430.935 161.609C436.05 162.8 440.272 165.47 443.602 169.619C446.933 173.769 448.598 178.524 448.598 183.884Z" fill="#EEEEEE"/>
<path d="M106.343 116.823C106.345 120.909 104.423 124.399 100.575 127.292C96.7279 130.185 92.0842 131.633 86.6448 131.637L30.809 131.671C24.4797 131.674 19.0644 129.988 14.5634 126.612C10.0623 123.236 7.81033 119.17 7.80744 114.416C7.80534 111.024 9.01801 107.921 11.4454 105.105C13.8728 102.29 17.0705 100.187 21.0383 98.7967C20.9695 98.0774 20.9349 97.5251 20.9347 97.1397C20.9314 91.6918 23.4945 87.0392 28.6238 83.181C33.7538 79.3235 39.9454 77.3926 47.1986 77.3882C52.604 77.3846 57.5057 78.5124 61.9037 80.7715C66.301 83.0299 69.5102 85.983 71.5315 89.6308C73.9249 88.0361 76.7641 87.238 80.0485 87.2358C83.6755 87.2336 86.772 88.1951 89.3396 90.121C91.9064 92.0468 93.1905 94.3717 93.1927 97.0957C93.1934 99.023 92.4932 100.796 91.092 102.416C95.5059 103.184 99.1502 104.91 102.026 107.594C104.902 110.277 106.34 113.354 106.343 116.823Z" fill="#EEEEEE"/>
<path d="M419.692 248.749C419.692 258.709 416.191 267.212 409.191 274.259C402.19 281.306 393.743 284.829 383.849 284.829H282.293C270.781 284.829 260.934 280.711 252.75 272.474C244.568 264.237 240.476 254.324 240.476 242.736C240.476 234.467 242.685 226.904 247.104 220.045C251.522 213.186 257.34 208.065 264.558 204.682C264.434 202.928 264.372 201.582 264.372 200.642C264.372 187.363 269.039 176.025 278.373 166.629C287.707 157.234 298.97 152.535 312.162 152.535C321.995 152.535 330.909 155.291 338.905 160.803C346.901 166.316 352.735 173.519 356.406 182.414C360.762 178.531 365.927 176.589 371.901 176.589C378.497 176.589 384.129 178.938 388.796 183.636C393.463 188.334 395.796 194.003 395.796 200.642C395.796 205.34 394.521 209.662 391.969 213.608C399.997 215.488 406.624 219.7 411.851 226.246C417.078 232.791 419.692 240.292 419.692 248.749Z" fill="white"/>
<mask id="mask0_42_912" style="mask-type:luminance" maskUnits="userSpaceOnUse" x="283" y="173" width="95" height="95">
<path d="M377.056 173.5H283.112V267.479H377.056V173.5Z" fill="white"/>
</mask>
<g mask="url(#mask0_42_912)">
<path fill-rule="evenodd" clip-rule="evenodd" d="M330.084 173.5C333.79 173.5 336.794 176.505 336.794 180.213V217.133H346.859C348.217 217.133 349.44 217.951 349.96 219.205C350.478 220.459 350.192 221.903 349.232 222.863L332.456 239.645C331.146 240.955 329.022 240.955 327.712 239.645L310.936 222.863C309.976 221.903 309.69 220.459 310.208 219.205C310.728 217.951 311.951 217.133 313.309 217.133H323.374V180.213C323.374 176.505 326.378 173.5 330.084 173.5ZM299.888 247.341C299.888 243.633 296.884 240.628 293.178 240.628C289.471 240.628 286.467 243.633 286.467 247.341C286.467 252.682 288.588 257.804 292.363 261.581C296.139 265.357 301.259 267.479 306.598 267.479H353.57C358.91 267.479 364.029 265.357 367.805 261.581C371.58 257.804 373.701 252.682 373.701 247.341C373.701 243.633 370.697 240.628 366.99 240.628C363.284 240.628 360.28 243.633 360.28 247.341C360.28 249.121 359.573 250.829 358.315 252.088C357.057 253.346 355.35 254.054 353.57 254.054H306.598C304.818 254.054 303.111 253.346 301.853 252.088C300.595 250.829 299.888 249.121 299.888 247.341Z" fill="url(#paint0_linear_42_912)"/>
</g>
<defs>
<linearGradient id="paint0_linear_42_912" x1="373.406" y1="267.499" x2="266.547" y2="211.702" gradientUnits="userSpaceOnUse">
<stop stop-color="#51C0FF"/>
<stop offset="1" stop-color="#1B4DFF"/>
</linearGradient>
</defs>
</svg>
