<svg width="32" height="32" viewBox="0 0 32 32" fill="none" xmlns="http://www.w3.org/2000/svg">
<path d="M16.1467 20.52L10.9733 25.6933C10.347 26.2978 9.51048 26.6357 8.64 26.6357C7.76952 26.6357 6.93302 26.2978 6.30667 25.6933C5.99947 25.3874 5.75572 25.0237 5.5894 24.6233C5.42308 24.2229 5.33747 23.7936 5.33747 23.36C5.33747 22.9264 5.42308 22.4971 5.5894 22.0967C5.75572 21.6963 5.99947 21.3327 6.30667 21.0267L11.48 15.8533C11.7311 15.6023 11.8721 15.2618 11.8721 14.9067C11.8721 14.5516 11.7311 14.2111 11.48 13.96C11.2289 13.7089 10.8884 13.5679 10.5333 13.5679C10.1783 13.5679 9.83774 13.7089 9.58667 13.96L4.41333 19.1467C3.37114 20.2811 2.80749 21.7742 2.8401 23.3144C2.87271 24.8545 3.49904 26.3224 4.58831 27.4117C5.67758 28.501 7.14555 29.1273 8.68566 29.1599C10.2258 29.1925 11.7189 28.6289 12.8533 27.5867L18.04 22.4133C18.2911 22.1623 18.4321 21.8218 18.4321 21.4667C18.4321 21.1116 18.2911 20.7711 18.04 20.52C17.7889 20.2689 17.4484 20.1279 17.0933 20.1279C16.7383 20.1279 16.3977 20.2689 16.1467 20.52ZM27.5867 4.41335C26.465 3.29869 24.948 2.67307 23.3667 2.67307C21.7854 2.67307 20.2683 3.29869 19.1467 4.41335L13.96 9.58668C13.8357 9.711 13.7371 9.85859 13.6698 10.021C13.6025 10.1834 13.5679 10.3575 13.5679 10.5333C13.5679 10.7092 13.6025 10.8833 13.6698 11.0457C13.7371 11.2081 13.8357 11.3557 13.96 11.48C14.0843 11.6043 14.2319 11.7029 14.3943 11.7702C14.5568 11.8375 14.7309 11.8721 14.9067 11.8721C15.0825 11.8721 15.2566 11.8375 15.419 11.7702C15.5814 11.7029 15.729 11.6043 15.8533 11.48L21.0267 6.30668C21.653 5.70218 22.4895 5.36436 23.36 5.36436C24.2305 5.36436 25.067 5.70218 25.6933 6.30668C26.0005 6.61266 26.2443 6.97629 26.4106 7.37671C26.5769 7.77712 26.6625 8.20643 26.6625 8.64001C26.6625 9.0736 26.5769 9.50291 26.4106 9.90332C26.2443 10.3037 26.0005 10.6674 25.6933 10.9733L20.52 16.1467C20.395 16.2706 20.2958 16.4181 20.2281 16.5806C20.1605 16.7431 20.1256 16.9173 20.1256 17.0933C20.1256 17.2694 20.1605 17.4436 20.2281 17.6061C20.2958 17.7686 20.395 17.9161 20.52 18.04C20.644 18.165 20.7914 18.2642 20.9539 18.3319C21.1164 18.3996 21.2907 18.4344 21.4667 18.4344C21.6427 18.4344 21.817 18.3996 21.9794 18.3319C22.1419 18.2642 22.2894 18.165 22.4133 18.04L27.5867 12.8533C28.7013 11.7317 29.3269 10.2146 29.3269 8.63335C29.3269 7.05205 28.7013 5.53497 27.5867 4.41335ZM11.7733 20.2267C11.8979 20.3503 12.0457 20.448 12.2081 20.5144C12.3706 20.5807 12.5445 20.6144 12.72 20.6133C12.8955 20.6144 13.0694 20.5807 13.2319 20.5144C13.3943 20.448 13.5421 20.3503 13.6667 20.2267L20.2267 13.6667C20.4777 13.4156 20.6188 13.0751 20.6188 12.72C20.6188 12.3649 20.4777 12.0244 20.2267 11.7733C19.9756 11.5223 19.6351 11.3812 19.28 11.3812C18.9249 11.3812 18.5844 11.5223 18.3333 11.7733L11.7733 18.3333C11.6484 18.4573 11.5492 18.6048 11.4815 18.7672C11.4138 18.9297 11.3789 19.104 11.3789 19.28C11.3789 19.456 11.4138 19.6303 11.4815 19.7928C11.5492 19.9553 11.6484 20.1027 11.7733 20.2267Z" fill="#939393"/>
</svg>
