<svg width="184" height="184" viewBox="0 0 184 184" fill="none" xmlns="http://www.w3.org/2000/svg">
<path d="M85.7163 5.65829C89.4305 2.41671 94.9682 2.41671 98.6825 5.65829L117.578 22.1487C119.201 23.5652 121.243 24.4111 123.392 24.5572L148.413 26.2575C153.332 26.5918 157.248 30.5075 157.582 35.426L159.282 60.4473C159.428 62.5966 160.274 64.6389 161.691 66.2619L178.181 85.157C181.423 88.8712 181.423 94.4089 178.181 98.1232L161.691 117.018C160.274 118.641 159.428 120.684 159.282 122.833L157.582 147.854C157.248 152.773 153.332 156.688 148.413 157.023L123.392 158.723C121.243 158.869 119.201 159.715 117.578 161.131L98.6825 177.622C94.9682 180.863 89.4305 180.863 85.7163 177.622L66.8213 161.131C65.1982 159.715 63.1559 158.869 61.0066 158.723L35.9853 157.023C31.0668 156.688 27.1511 152.773 26.8168 147.854L25.1165 122.833C24.9705 120.684 24.1245 118.641 22.708 117.018L6.21762 98.1232C2.97604 94.4089 2.97604 88.8712 6.21762 85.157L22.708 66.2619C24.1245 64.6389 24.9705 62.5966 25.1165 60.4473L26.8168 35.426C27.1511 30.5075 31.0668 26.5918 35.9853 26.2575L61.0066 24.5572C63.1559 24.4111 65.1982 23.5652 66.8212 22.1487L85.7163 5.65829Z" fill="url(#paint0_radial_10_98)"/>
<path fill-rule="evenodd" clip-rule="evenodd" d="M57.2408 61.9788C58.4773 60.7983 60.4822 60.7983 61.7187 61.9788L72.0772 71.8675C78.0885 68.8479 84.9349 67.1391 92.1994 67.1391C99.4639 67.1391 106.31 68.8479 112.322 71.8675L122.68 61.9788C123.917 60.7983 125.921 60.7983 127.158 61.9788C128.395 63.1592 128.395 65.0732 127.158 66.2537L117.828 75.1603C128.53 82.6812 135.474 94.7921 135.474 108.451C135.474 108.788 135.47 109.124 135.461 109.459H48.9376C48.9292 109.124 48.925 108.788 48.925 108.451C48.925 94.7921 55.8688 82.6812 66.5703 75.1602L57.2408 66.2537C56.0042 65.0732 56.0042 63.1592 57.2408 61.9788ZM75.3118 95.3522C77.6435 95.3522 79.5337 93.5478 79.5337 91.3218C79.5337 89.0958 77.6435 87.2913 75.3118 87.2913C72.9801 87.2913 71.0899 89.0958 71.0899 91.3218C71.0899 93.5478 72.9801 95.3522 75.3118 95.3522ZM113.309 91.3218C113.309 93.5478 111.419 95.3522 109.087 95.3522C106.755 95.3522 104.865 93.5478 104.865 91.3218C104.865 89.0958 106.755 87.2913 109.087 87.2913C111.419 87.2913 113.309 89.0958 113.309 91.3218Z" fill="#3CDB83"/>
<defs>
<radialGradient id="paint0_radial_10_98" cx="0" cy="0" r="1" gradientUnits="userSpaceOnUse" gradientTransform="translate(54.6525 36.9107) rotate(49.4258) scale(145.783)">
<stop stop-color="#376A80"/>
<stop offset="1" stop-color="#013145"/>
</radialGradient>
</defs>
</svg>
