<svg width="184" height="184" viewBox="0 0 184 184" fill="none" xmlns="http://www.w3.org/2000/svg">
<rect x="0.279602" width="183.28" height="183.28" rx="91.64" fill="black"/>
<path d="M144.259 127.274C142.314 131.68 140.012 135.735 137.345 139.464C133.71 144.546 130.733 148.065 128.439 150.019C124.883 153.226 121.073 154.868 116.993 154.961C114.063 154.961 110.531 154.144 106.419 152.486C102.294 150.836 98.5029 150.019 95.0364 150.019C91.4009 150.019 87.5018 150.836 83.3312 152.486C79.1543 154.144 75.7895 155.008 73.2168 155.094C69.3042 155.257 65.4044 153.568 61.5116 150.019C59.0271 147.894 55.9194 144.251 52.1965 139.09C48.2022 133.579 44.9183 127.188 42.3456 119.902C39.5904 112.033 38.2092 104.412 38.2092 97.0345C38.2092 88.5834 40.0715 81.2945 43.8015 75.1864C46.7329 70.2801 50.6328 66.4099 55.5138 63.5688C60.3948 60.7276 65.6687 59.2798 71.3482 59.1871C74.4559 59.1871 78.5312 60.1298 83.5956 61.9824C88.6456 63.8412 91.8882 64.7838 93.3099 64.7838C94.3728 64.7838 97.975 63.6816 104.082 61.4842C109.856 59.4464 114.73 58.6026 118.723 58.9349C129.542 59.7912 137.671 63.9735 143.076 71.5084C133.4 77.2577 128.614 85.3103 128.709 95.6404C128.796 103.687 131.773 110.383 137.623 115.699C140.274 118.167 143.235 120.074 146.529 121.428C145.815 123.46 145.061 125.406 144.259 127.274ZM119.445 31.5228C119.445 37.8295 117.096 43.718 112.412 49.1684C106.761 55.6478 99.9245 59.3919 92.5114 58.8011C92.4169 58.0445 92.3621 57.2482 92.3621 56.4114C92.3621 50.357 95.0499 43.8776 99.8229 38.5798C102.206 35.8974 105.237 33.6671 108.912 31.8879C112.579 30.1352 116.048 29.166 119.31 29C119.406 29.8431 119.445 30.6863 119.445 31.5227V31.5228Z" fill="white"/>
</svg>
