<svg width="203" height="184" viewBox="0 0 203 184" fill="none" xmlns="http://www.w3.org/2000/svg">
<path d="M73.3589 51.9173L74.0055 63.5273L63.6598 78.6707L47.4947 103.405L44.2617 124.101L55.9005 153.378L82.4113 164.988H122.501L160.004 142.778L176.816 107.948L138.019 71.099L127.027 50.403L73.3589 51.9173Z" fill="#ECEFF1"/>
<path d="M165.177 80.6896C154.831 69.0796 146.425 62.0127 141.899 47.374C137.373 32.7354 143.192 36.7736 139.313 24.1541C137.373 17.5919 134.14 13.0489 130.907 9.51543C127.027 5.98196 122.501 3.96284 119.914 3.45806C114.095 0.934151 100.516 -3.1041 83.7046 3.96284C66.2463 11.0298 68.1861 26.1732 71.4191 56.9649C71.4191 58.984 70.7725 61.5079 69.4793 63.527C66.8929 68.0701 62.3666 72.1083 58.487 75.6418C53.9608 80.6896 49.4345 85.7374 46.2015 91.29C38.4423 102.9 31.3296 117.539 33.2694 123.091C36.5024 122.586 77.2385 171.045 77.2385 172.055C79.825 171.55 90.8172 171.55 100.516 171.55C114.095 171.045 121.854 170.541 132.847 172.56C132.847 171.045 132.2 169.531 132.2 168.017C132.2 164.988 132.847 162.464 133.493 158.931C134.14 156.407 134.786 153.883 135.433 150.854C128.967 155.397 117.328 160.445 106.336 161.959C96.6367 163.474 80.4715 160.95 72.7123 153.378C73.3589 153.378 74.6521 153.378 75.2987 152.873C77.2385 152.369 79.1783 151.864 79.8249 150.854C81.7648 148.33 80.4715 145.806 79.1783 144.292C77.8851 142.778 68.1861 137.225 63.6598 134.196C59.1336 131.168 56.5472 129.653 53.9608 127.634C53.9608 127.634 50.0811 124.606 48.7879 123.596C47.4947 122.586 46.8481 121.577 46.2015 121.072C44.9083 118.548 44.2617 115.52 44.9083 111.481C45.5549 105.929 48.1413 101.386 51.3744 96.3378C52.6676 94.3187 55.9006 90.2804 55.9006 90.2804C55.9006 90.2804 44.9083 111.481 50.7278 118.043C50.7278 118.043 51.3744 111.481 53.9608 104.919C55.9006 100.376 59.1336 93.8139 63.0132 90.2804C66.8929 86.747 76.5919 73.6227 77.2385 65.5462C77.2385 62.0127 77.8851 58.4792 77.8851 55.9553C75.2987 53.9362 120.561 48.8884 123.147 54.441C123.794 56.4601 132.847 74.6322 138.019 84.2231C140.606 88.7661 143.839 92.8044 145.779 97.8522C147.718 103.405 149.012 110.976 149.012 118.548C149.012 120.063 149.012 122.586 148.365 125.11C149.658 125.11 174.876 103.91 145.132 86.2422C145.132 86.2422 163.237 92.8044 163.884 105.929C164.53 116.529 158.711 125.11 157.417 126.625C158.064 126.625 170.996 131.168 171.643 131.168C174.229 131.168 179.402 129.653 179.402 129.653C180.049 128.139 181.988 124.101 181.988 122.586C186.515 110.976 175.522 92.2996 165.177 80.6896Z" fill="#263238"/>
<path d="M83.0581 47.374C87.7005 47.374 91.4639 42.854 91.4639 37.2784C91.4639 31.7027 87.7005 27.1827 83.0581 27.1827C78.4157 27.1827 74.6522 31.7027 74.6522 37.2784C74.6522 42.854 78.4157 47.374 83.0581 47.374Z" fill="#ECEFF1"/>
<path d="M112.155 48.3836C118.226 48.3836 123.148 43.1857 123.148 36.7737C123.148 30.3617 118.226 25.1637 112.155 25.1637C106.084 25.1637 101.163 30.3617 101.163 36.7737C101.163 43.1857 106.084 48.3836 112.155 48.3836Z" fill="#ECEFF1"/>
<path d="M87.7536 37.9695C87.2162 34.6505 84.7701 32.1584 82.2901 32.4031C79.8101 32.6478 78.2352 35.5367 78.7726 38.8557C79.31 42.1747 81.7561 44.6669 84.2361 44.4221C86.7161 44.1774 88.291 41.2885 87.7536 37.9695Z" fill="#212121"/>
<path d="M111.508 45.3549C115.079 45.3549 117.974 42.4169 117.974 38.7928C117.974 35.1686 115.079 32.2306 111.508 32.2306C107.937 32.2306 105.042 35.1686 105.042 38.7928C105.042 42.4169 107.937 45.3549 111.508 45.3549Z" fill="#212121"/>
<path d="M197.507 149.845C194.92 148.835 190.394 147.321 186.515 142.778C184.575 140.254 185.221 133.187 181.988 130.158C180.049 128.139 177.462 129.149 176.816 129.149C170.996 130.158 157.417 137.225 148.365 129.149C147.072 128.139 145.132 126.625 141.899 126.625C138.666 126.625 137.373 127.634 136.079 129.653C134.786 131.673 134.786 133.187 134.786 138.235C134.786 142.273 134.786 146.816 134.14 150.349C132.846 158.931 130.907 163.979 130.907 169.026C130.907 174.579 132.846 178.112 135.433 179.627C137.373 181.141 140.606 182.151 147.718 182.151C154.831 182.151 159.357 180.132 163.883 176.598C167.116 174.074 169.703 173.065 178.755 168.017C185.868 164.483 196.86 159.94 198.8 158.426C200.093 157.416 202.033 156.912 202.033 153.883C202.033 151.359 199.447 150.349 197.507 149.845Z" fill="#FFC107"/>
<path d="M67.5395 151.359C61.0734 143.283 60.4268 141.768 55.9006 136.72C52.021 131.673 43.6151 122.082 38.4423 122.082C34.5626 122.082 32.6228 123.596 30.0364 125.615C27.45 127.634 24.8636 132.177 20.3373 134.701C16.4577 137.225 5.46543 136.72 2.87901 139.749C0.292597 142.778 5.46544 147.321 5.46544 154.893C5.46544 157.921 2.23241 159.94 1.58581 161.96C0.939202 164.483 0.292598 165.998 1.58581 168.017C4.17222 171.046 7.40525 172.055 29.3898 175.589C41.0287 177.608 52.021 182.656 59.1336 183.16C66.2462 183.665 78.5317 183.16 78.5317 169.531C79.1783 161.455 73.3589 159.436 67.5395 151.359Z" fill="#FFC107"/>
<path d="M79.8249 59.9937C75.9453 57.9746 72.7122 55.9555 72.7122 52.9268C72.7122 49.8981 75.2987 48.8885 79.1783 46.3646C79.8249 45.8598 86.9375 40.812 94.0502 40.812C101.163 40.812 109.569 44.3455 112.802 45.355C118.621 46.3646 124.441 47.3742 123.794 50.9076C123.147 55.9555 122.501 56.965 116.035 59.4889C111.509 60.4985 103.103 66.0511 97.2832 66.0511C94.6968 66.0511 90.8172 66.0511 88.2308 65.5463C86.2909 65.0415 83.0579 62.5176 79.8249 59.9937Z" fill="#FFC107"/>
<path d="M78.5316 55.9552C79.8248 56.9647 81.7647 57.9743 83.7045 58.4791C84.9977 58.9838 86.9375 59.4886 86.9375 59.4886C89.5239 59.4886 91.4637 59.4886 92.7569 59.4886C95.9899 59.4886 100.516 58.4791 105.042 56.4599C109.569 54.9456 110.215 53.936 113.448 52.9265C116.681 51.4121 119.914 49.8978 118.621 49.393C117.328 48.8882 116.035 49.393 111.508 51.4121C107.629 53.4313 104.396 54.4408 100.516 55.9552C98.5764 56.4599 95.9899 57.4695 94.0501 57.4695C92.1103 57.4695 90.1705 57.4695 88.2307 57.4695C86.2909 57.4695 84.9977 56.9647 83.0579 56.4599C81.7647 55.9552 81.118 55.4504 80.4714 55.4504C79.1782 54.9456 76.5918 52.9265 75.2986 52.4217C75.2986 52.4217 74.0054 52.4217 74.652 52.9265C76.5918 54.4408 77.2384 54.9456 78.5316 55.9552Z" fill="#634703"/>
<path d="M97.93 44.8501C98.5766 45.8597 99.8698 45.8597 100.516 46.3645C101.163 46.8693 101.81 46.8693 101.81 46.8693C102.456 46.3645 101.81 45.3549 101.163 45.3549C101.163 44.3453 97.93 44.3453 97.93 44.8501Z" fill="#634703"/>
<path d="M87.5842 45.8594C87.5842 46.3642 88.8774 46.869 88.8774 46.3642C89.524 45.8594 90.1706 45.3547 90.8172 45.3547C92.1104 44.8499 91.4638 44.3451 89.524 44.3451C88.2308 44.8499 88.2308 45.3547 87.5842 45.8594Z" fill="#634703"/>
<path d="M150.305 135.206C150.305 135.711 150.305 136.216 150.305 136.721C151.598 138.74 154.831 139.244 157.417 139.244C161.297 139.244 165.177 137.225 167.117 135.206C167.117 134.701 167.763 134.197 168.41 133.692C169.703 132.178 170.35 131.168 170.996 130.663C170.996 130.663 170.35 130.158 170.35 129.654C169.703 128.644 167.763 127.634 165.177 127.13C163.237 126.625 160.004 126.12 158.711 126.12C152.891 125.615 149.658 127.13 147.718 128.644C147.718 128.644 148.365 128.644 148.365 129.149C149.658 130.158 150.305 131.168 150.305 132.682C150.951 133.692 150.305 134.197 150.305 135.206Z" fill="#455A64"/>
</svg>
